<svg width="34" height="43" viewBox="0 0 34 43" fill="none" xmlns="http://www.w3.org/2000/svg">
<path d="M2.4787 13.9085C1.10983 13.9078 0.00034585 15.0984 0 16.5627L0.00168583 27.6756C0.00146968 28.0243 0.0654519 28.3696 0.189958 28.6918C0.314507 29.014 0.497158 29.3068 0.727451 29.5533C0.957744 29.7999 1.23122 29.9955 1.53216 30.1289C1.83313 30.2622 2.15568 30.3307 2.48138 30.3306C2.80709 30.3309 3.12964 30.2625 3.43057 30.1292C3.7315 29.996 4.00489 29.8004 4.23514 29.5538C4.46535 29.3072 4.64787 29.0144 4.77221 28.6922C4.89658 28.37 4.9603 28.0246 4.95974 27.676V16.5613C4.95905 15.8574 4.69733 15.1826 4.23207 14.6852C3.76686 14.1877 3.13621 13.9084 2.4787 13.9085ZM22.4708 3.92874L24.201 0.546338C24.2451 0.460535 24.2556 0.35952 24.2302 0.265448C24.2048 0.17137 24.1456 0.0919127 24.0656 0.0444945C23.9854 -0.00193325 23.8913 -0.0125175 23.8039 0.0150514C23.7164 0.0426248 23.6427 0.106107 23.5988 0.19165L21.851 3.60946C20.3804 2.90877 18.7346 2.51612 16.9932 2.51793C15.2565 2.51612 13.6114 2.90769 12.1469 3.60442L10.3971 0.195264C10.3757 0.15271 10.3467 0.115117 10.3117 0.0846606C10.2766 0.0542039 10.2363 0.0314899 10.193 0.0178374C10.1497 0.00418491 10.1043 -0.000137666 10.0595 0.00511971C10.0146 0.0103771 9.97119 0.0251126 9.93168 0.0484699C9.89182 0.0712905 9.85658 0.102395 9.82805 0.139965C9.79952 0.177535 9.77829 0.220816 9.76558 0.267276C9.75287 0.313736 9.74898 0.362445 9.75404 0.410544C9.75914 0.458647 9.77315 0.505181 9.79524 0.547425L11.5262 3.92763C8.12509 5.80525 5.82709 9.38105 5.82912 13.4866L28.1601 13.4837C28.1607 9.37961 25.8668 5.81103 22.4708 3.92874ZM11.9143 9.1558C11.6659 9.15566 11.4278 9.04992 11.2523 8.86184C11.0767 8.67371 10.9782 8.41871 10.9783 8.15283C10.9785 7.887 11.0773 7.63205 11.253 7.4442C11.4287 7.2563 11.6669 7.15083 11.9153 7.15097C12.1636 7.15143 12.4017 7.25723 12.5774 7.44521C12.753 7.6332 12.8519 7.88802 12.8525 8.15394C12.852 8.41991 12.753 8.67487 12.577 8.86271C12.4011 9.05056 12.1627 9.15599 11.9143 9.1558ZM22.0824 9.154C21.9594 9.15409 21.8376 9.12827 21.7241 9.07792C21.6105 9.02761 21.5072 8.95384 21.4203 8.86077C21.3333 8.76775 21.2643 8.65728 21.2173 8.53566C21.1703 8.41408 21.1461 8.28371 21.1461 8.15214C21.1474 7.88649 21.2465 7.63209 21.4218 7.4441C21.5971 7.25607 21.8346 7.14958 22.0827 7.14768C22.3306 7.1499 22.5678 7.25658 22.7427 7.44466C22.9176 7.63274 23.0162 7.88705 23.0172 8.15246C23.0174 8.28399 22.9933 8.41422 22.9463 8.53575C22.8994 8.65728 22.8306 8.7677 22.7438 8.86072C22.6569 8.95375 22.5538 9.02752 22.4403 9.07787C22.3268 9.12817 22.2052 9.15405 22.0824 9.154ZM5.9203 14.41L5.92401 31.6329C5.92363 32.0049 5.99176 32.3733 6.12456 32.717C6.25737 33.0607 6.45221 33.3731 6.6979 33.6361C6.94362 33.8991 7.23539 34.1076 7.55651 34.2498C7.87759 34.3918 8.22175 34.4648 8.56924 34.4643L10.3704 34.465L10.3724 40.3454C10.3721 41.8097 11.4839 43 12.8498 43C14.2197 43 15.3295 41.8087 15.3298 40.3436L15.3285 34.4646L18.6752 34.4636L18.6765 40.3436C18.6765 41.8069 19.7887 42.9996 21.1549 42.9968C22.5248 42.9978 23.6353 41.8065 23.635 40.3415L23.6333 34.4628L25.4409 34.4614C25.7884 34.4614 26.1325 34.3882 26.4536 34.2459C26.7746 34.1036 27.0664 33.8949 27.3121 33.6319C27.5579 33.3689 27.7528 33.0567 27.8859 32.713C28.0189 32.3693 28.0874 32.0009 28.0874 31.6289L28.0844 14.406L5.9203 14.41ZM33.9983 16.5587C33.9984 16.2102 33.9342 15.8651 33.8097 15.5431C33.6851 15.2211 33.5024 14.9285 33.2722 14.6821C33.0419 14.4357 32.7686 14.2402 32.4677 14.1069C32.1669 13.9737 31.8445 13.9051 31.5189 13.9053C30.15 13.9038 29.0409 15.0937 29.0409 16.5598L29.0429 27.6735C29.0427 28.022 29.1067 28.3671 29.2311 28.6892C29.3556 29.0112 29.5382 29.3039 29.7684 29.5503C29.9986 29.7967 30.272 29.9922 30.5728 30.1255C30.8736 30.2587 31.1961 30.3272 31.5216 30.327C31.8472 30.327 32.1697 30.2584 32.4705 30.1249C32.7713 29.9915 33.0446 29.7959 33.2748 29.5493C33.505 29.3028 33.6875 29.0101 33.8119 28.688C33.9363 28.3658 34.0003 28.0206 34 27.672L33.9983 16.5587Z" fill="#323232"/>
</svg>
