<svg width="39" height="49" viewBox="0 0 39 49" fill="none" xmlns="http://www.w3.org/2000/svg">
<mask id="mask0_3416_18" style="mask-type:luminance" maskUnits="userSpaceOnUse" x="0" y="2" width="39" height="47">
<path d="M0 2H38.326V48.4346H0V2Z" fill="#323232"/>
</mask>
<g mask="url(#mask0_3416_18)">
<path d="M32.0042 26.6704C31.9501 20.7961 36.8713 17.9736 37.093 17.8349C34.3242 13.8387 30.0194 13.2944 28.4836 13.2304C24.8225 12.8623 21.3343 15.3593 19.474 15.3593C17.6137 15.3593 14.7475 13.2837 11.7082 13.3424C7.71176 13.4011 4.02898 15.6314 1.96854 19.1635C-2.17931 26.2596 0.908598 36.7864 4.95371 42.5541C6.93302 45.3712 9.28549 48.5458 12.3842 48.4284C15.3694 48.311 16.4942 46.5237 20.0959 46.5237C23.6976 46.5237 24.7143 48.4284 27.8617 48.3697C31.0686 48.3057 33.102 45.4886 35.0651 42.6608C37.331 39.3902 38.2665 36.2209 38.3206 36.0555C38.2503 36.0288 32.0691 33.6919 32.0042 26.6704Z" fill="black"/>
</g>
<path d="M23.0826 7.41628C24.7266 5.45282 25.8352 2.72108 25.5324 0C23.1637 0.0960382 20.2975 1.55795 18.5994 3.5214C17.0798 5.25543 15.744 8.03522 16.1064 10.7029C18.74 10.9057 21.4386 9.3744 23.0826 7.41628Z" fill="#323232"/>
</svg>
