<svg width="130" height="36" viewBox="0 0 130 36" fill="none" xmlns="http://www.w3.org/2000/svg">
<path d="M10.9484 28.8994H12.3604V30.0168H10.9484V28.8994ZM18.2255 26.2703L19.6374 26.3579V27.5191C19.1378 27.5191 18.7468 27.4315 18.2255 27.4315V26.2703ZM14.5761 26.0731L15.9881 26.1169V27.2781L14.5761 27.1905V26.0731ZM7.32076 25.9855H8.73274V27.1029H7.32076V25.9855ZM25.3287 23.904C25.4808 23.9698 26.4148 24.0136 26.6973 24.0793V25.4158L25.3287 25.2406V23.904ZM8.75445 24.145V23.0276C8.94996 23.0276 8.92825 22.9838 9.12372 22.9838H10.1664V24.1012H9.12372C8.92825 24.1012 8.94996 24.145 8.75445 24.145ZM18.2255 25.3501L15.7925 25.2624C15.4884 25.2405 15.0322 25.2186 14.7064 25.1748C14.5326 25.1529 14.3154 25.1748 14.1199 25.1748C13.9027 25.1748 13.8375 25.131 13.5768 25.131V19.6097C14.9671 19.6097 17.9213 19.6317 19.203 19.9384C19.8112 20.0918 20.2674 20.2451 20.7453 20.6395C20.8322 20.7052 20.8539 20.7052 20.9191 20.7929C21.549 21.3844 21.6359 22.2608 21.6359 23.1153C21.6576 25.131 19.9198 25.3501 18.2255 25.3501ZM8.75445 21.5159H10.1664V22.6333H8.75445V21.5159ZM10.2099 17.0682H11.6218V18.2294H10.2099V17.0682ZM10.3619 12.6425H11.7739V13.7599H10.3619V12.6425ZM25.3287 13.1026V11.7661C25.5459 11.7661 26.5886 11.7004 26.6973 11.6346V13.0149C26.2411 13.0149 25.8066 13.1026 25.3287 13.1026ZM13.5986 15.7755V10.1448H14.2285L17.8996 9.96948C18.2255 9.92567 19.3116 10.0133 19.6374 10.1229C20.8322 10.5172 20.9191 11.306 20.8539 12.6863C20.767 14.5486 18.9858 15.4688 17.2914 15.5564C17.0959 15.5784 16.9438 15.5784 16.7049 15.6003C15.8794 15.666 15.054 15.7317 14.2285 15.7317C13.9461 15.7317 13.7941 15.7536 13.5986 15.7755ZM8.34171 11.1964H9.75369V12.3138H8.34171V11.1964ZM25.3287 9.64085V8.30437C25.8066 8.30437 26.1976 8.1291 26.6973 8.1291V9.46557C26.3714 9.50938 25.6111 9.64085 25.3287 9.64085ZM9.12372 9.31218C9.12372 7.80042 8.9282 8.17291 10.123 8.15098C10.3185 8.15098 10.3185 8.10717 10.4923 8.10717V9.26837H9.75369C9.47127 9.26837 9.38442 9.31218 9.12372 9.31218ZM11.0353 9.22456H10.905V8.10717L12.3169 8.01951V9.18076C11.8391 9.18076 11.5132 9.22456 11.0353 9.22456ZM16.3139 3.35278V6.31055L15.5319 6.35441C15.1191 6.39821 13.4031 6.42014 13.1641 6.46395V5.28082C13.5768 5.28082 14.1851 5.28082 14.5326 5.19316V3.44039L9.66679 3.72521C9.47127 3.72521 9.03682 3.6376 9.03682 3.85668V6.68303H5.53951C5.45261 6.68303 5.40918 6.70496 5.40918 6.8145V8.10717C5.40918 8.19479 5.43089 8.23864 5.53951 8.23864H6.86459V9.35603H5.40918V10.7363C5.40918 10.824 5.43089 10.8678 5.53951 10.8678H7.23385V15.4907C7.23385 15.5784 7.25562 15.6222 7.36418 15.6222H8.64583V16.7396H7.36418C7.27733 16.7396 7.23385 16.7615 7.23385 16.871V18.4485C7.23385 18.5362 7.25562 18.58 7.36418 18.58H8.64583V19.6974H7.36418C7.27733 19.6974 7.23385 19.7193 7.23385 19.8289V24.4518H5.53951C5.45261 24.4518 5.40918 24.4737 5.40918 24.5833V27.3658C5.40918 27.6068 5.99568 27.4534 6.47361 27.4534H6.7994V28.5051C6.7994 28.5927 6.82116 28.6365 6.92977 28.6365H9.03682V31.4629C9.03682 31.6382 9.36266 31.5943 9.8623 31.6382C10.2316 31.66 11.296 31.66 11.7739 31.7258C11.9259 31.7477 12.0997 31.7258 12.2518 31.7258C12.4256 31.7477 12.5125 31.7696 12.7514 31.7696V30.6522C13.2727 30.6522 13.642 30.7399 14.1633 30.7399V28.8556L15.2278 28.9433C15.5753 28.9433 15.9446 29.0309 16.2921 29.0309V32.1202C16.7701 32.1202 18.2472 32.3393 18.8554 32.4269L21.3318 32.7994V29.6225C22.722 29.6225 23.8733 29.9292 25.4373 29.2938C26.6973 28.7899 27.6313 27.9792 28.0441 26.6866C28.5002 25.3282 28.5654 23.6849 28.2613 22.2608C28.1527 21.7131 27.9572 21.1653 27.6965 20.7052L27.4576 20.3108C27.3489 20.1794 27.1969 20.1575 26.9362 20.1575C26.3497 20.1575 25.8718 20.1137 25.2853 20.1137V18.4923C25.2853 18.4923 24.3947 18.1418 23.9385 18.0322C23.5909 17.9446 22.8089 17.7474 22.3962 17.7474V16.6958C22.8306 16.5862 24.0254 16.1261 24.4381 15.9289C25.0898 15.6003 24.8725 15.6879 25.307 15.3812C27.4793 13.8694 28.0223 11.0869 27.3272 8.56727C27.1317 7.84423 27.1969 8.32625 27.0013 7.77854C26.8059 7.18698 25.8501 6.44202 25.1767 6.17913C24.2426 5.80665 23.6995 5.76284 22.7003 5.76284C22.3093 5.76284 21.6359 5.78472 21.3318 5.85046V5.52183C20.8756 5.52183 20.376 5.69711 19.9198 5.69711V4.40444C20.1153 4.40444 20.3977 4.3387 20.6149 4.31677C20.8104 4.2949 21.1146 4.25109 21.3318 4.20723V2.58594C21.2014 2.58594 17.4435 3.1775 16.5311 3.24324C16.4225 3.24324 16.3139 3.19938 16.3139 3.35278ZM120.017 22.6114C120.017 22.699 120.039 22.7428 120.148 22.7428H122.624C122.819 22.7428 122.754 22.4142 122.754 22.1951V17.3531C122.885 17.4407 122.928 17.5283 123.015 17.6598L126.817 22.5676C126.882 22.6333 126.882 22.7209 127.012 22.7209H129.206C129.293 22.7209 129.336 22.699 129.336 22.5895V12.7739H126.599V17.9446L123.037 13.3874C122.928 13.2559 122.624 12.7739 122.494 12.7739H120.017V22.6114ZM40.7734 20.4861H38.9053V18.6895H41.1427C41.7727 18.6895 42.2506 18.9744 42.2506 19.6097C42.2723 20.3328 41.512 20.4861 40.7734 20.4861ZM40.491 16.7396H38.927V15.0306C39.6656 15.0306 40.969 14.9211 41.4903 15.2059C41.6206 15.2716 41.6641 15.2936 41.7292 15.425C41.8596 15.6441 41.8596 15.7317 41.8596 15.9727C41.8596 16.5862 41.1427 16.7396 40.491 16.7396ZM36.19 12.9054V22.6114C36.19 22.699 36.2117 22.7428 36.3203 22.7428H40.7734C41.9247 22.7428 42.9892 22.6114 43.706 22.1951C44.4663 21.7569 45.0311 21.0777 45.0311 19.8945C45.0311 19.2154 44.7921 18.6676 44.4446 18.3171C44.0752 17.9665 43.9666 17.8789 43.4887 17.6598C43.3367 17.5941 43.2064 17.5941 43.1195 17.4845C43.7712 17.3311 44.5749 16.4109 44.5749 15.4907C44.5749 14.5267 44.4011 13.9351 43.5756 13.3655C43.0543 13.0149 42.294 12.7739 41.4251 12.7739H36.2986C36.2117 12.7739 36.19 12.7958 36.19 12.9054ZM56.8047 17.7255C56.8047 16.3233 57.804 15.0963 59.0856 15.0963C59.6718 15.0963 59.8677 15.0744 60.4323 15.3593C61.1927 15.7536 61.7573 16.652 61.7573 17.5064C61.7573 18.3828 61.6487 19.0401 61.0407 19.6536C59.6067 21.1653 56.8047 20.267 56.8047 17.7255ZM54.0023 17.4845C54.0023 18.4705 54.0674 19.1058 54.4805 20.0041C54.6107 20.289 54.7844 20.5518 54.9582 20.771C55.8054 21.9979 57.4778 22.8962 59.0421 22.8962C60.3454 22.8962 61.3881 22.6771 62.4091 21.9541C63.5821 21.1215 64.4728 19.7193 64.5814 18.2733C64.5814 18.1637 64.5814 18.076 64.6031 17.9446C64.7551 16.893 64.2557 15.6003 63.669 14.7239C62.8651 13.5189 61.171 12.5548 59.3461 12.5548C58.2817 12.5548 57.1739 12.8835 56.37 13.3874L55.6535 13.957C55.4146 14.198 55.2404 14.3514 55.045 14.6363C54.4587 15.425 54.0023 16.4328 54.0023 17.4845ZM93.581 12.9054V22.6114C93.581 22.699 93.6027 22.7428 93.7113 22.7428H96.3612V18.9306H99.8368V22.5895C99.8368 22.6771 99.8585 22.7209 99.9675 22.7209H102.487C102.574 22.7209 102.618 22.699 102.618 22.5895V12.9054C102.618 12.8178 102.596 12.7739 102.487 12.7739H99.8368V16.4767H96.3612V12.7739H93.7113C93.6027 12.7739 93.581 12.7958 93.581 12.9054ZM108.982 16.0165C109.026 16.2357 109.156 16.4767 109.221 16.6738C109.33 16.9368 110.003 18.6238 110.003 18.7553H107.896C107.918 18.58 108.569 17.0025 108.7 16.6738C108.743 16.5424 108.765 16.4548 108.83 16.3452L108.982 16.0165ZM103.617 22.7428H106.267C106.44 22.7428 106.614 22.1293 106.723 21.8664C106.788 21.7131 106.853 21.5597 106.919 21.3844C107.027 21.1215 107.027 20.9463 107.179 20.9463H110.763C110.894 20.9463 110.872 20.9901 110.915 21.0996L111.393 22.2827C111.459 22.458 111.502 22.6114 111.611 22.7428H114.478C114.456 22.5018 114.087 21.735 113.978 21.4502L113.196 19.5659C113.109 19.3468 113.022 19.1496 112.936 18.9306C112.74 18.4923 112.588 18.098 112.414 17.6817L111.35 15.1402C111.176 14.7239 111.002 14.3076 110.828 13.8694L110.438 12.9273C110.394 12.7958 110.372 12.6644 110.242 12.6644H107.809C107.635 12.6644 107.57 12.9711 107.483 13.1902L105.572 17.7036C104.985 19.1058 104.225 20.8148 103.704 22.1513C103.573 22.5018 103.4 22.7428 103.617 22.7428ZM65.6458 17.616C65.6458 19.1058 66.0801 20.3985 67.0794 21.4282C67.9267 22.2608 69.2082 22.9181 70.4681 22.9181C71.6845 22.9181 72.4884 22.8305 73.4659 22.2389C73.8351 22.0198 75.0298 21.0119 75.0515 20.6395C74.9429 20.6176 74.8995 20.5518 74.7909 20.4861C74.7041 20.4204 74.6389 20.3766 74.5521 20.3108L73.0312 19.2373C72.4232 19.6536 72.3147 20.3985 70.6852 20.3985C69.4471 20.3985 68.4912 19.1934 68.4912 17.9446C68.4912 17.0901 68.6215 16.4986 69.1431 15.8851C70.0121 14.8773 71.6194 14.943 72.5318 15.8632L72.9443 16.3014L73.7048 15.7098C73.8133 15.6222 73.8568 15.5784 73.9653 15.5126C74.139 15.3593 74.3132 15.2716 74.4869 15.1183C74.5955 15.0306 74.8995 14.7677 75.008 14.7239C74.8995 14.5267 74.8126 14.4391 74.6606 14.2857C74.3349 13.9132 74.2259 13.8256 73.8351 13.5189C73.3791 13.1683 72.7706 12.9273 72.2061 12.7739C71.0765 12.4891 69.7294 12.5548 68.7088 13.0149C68.3827 13.1464 68.1438 13.2779 67.8833 13.4751C67.753 13.5627 67.6444 13.6503 67.5136 13.7379C67.2748 13.9351 66.732 14.4829 66.5583 14.7458C66.0584 15.4469 65.6458 16.5643 65.6458 17.616ZM87.8246 22.8962C88.9759 22.8962 89.8227 22.8304 90.8437 22.1951C91.235 21.9541 91.2133 21.9322 91.4956 21.6912C91.8864 21.3625 92.1252 21.0996 92.4297 20.6395C92.1691 20.4642 90.518 19.2154 90.366 19.1716C90.2357 19.2592 90.1706 19.3906 89.9752 19.5879C89.8444 19.7193 89.7141 19.8289 89.5404 19.9384C87.9983 20.9901 85.8043 20.026 85.8043 17.7255C85.8043 17.0025 86.0866 16.2795 86.434 15.907C87.2813 15.0087 88.324 14.8773 89.4101 15.4688C89.5187 15.5346 89.5621 15.5784 89.649 15.6441C89.7358 15.7098 89.801 15.7536 89.8878 15.8413L90.2791 16.2795C90.7351 15.9727 91.3436 15.4469 91.8213 15.0963C92.0167 14.9649 92.1474 14.8335 92.3428 14.702C92.2777 14.461 91.8213 14.0447 91.6475 13.8475C90.2791 12.4672 87.8897 12.27 86.1083 12.993C85.8043 13.1245 85.5437 13.2559 85.261 13.4312C84.4576 13.957 83.9143 14.6143 83.48 15.4688C83.328 15.7536 83.2195 16.0604 83.1321 16.4109C82.9367 17.1778 82.915 17.857 83.0453 18.6676C83.1104 19.0182 83.2195 19.3906 83.328 19.6755C83.4366 19.9822 83.5886 20.267 83.7623 20.53C84.2183 21.2968 84.957 21.9541 85.7609 22.3485C86.282 22.6114 87.1293 22.8962 87.8246 22.8962Z" fill="#323232"/>
<path d="M76.2243 22.6108C76.2243 22.6984 76.246 22.7422 76.3545 22.7422H78.8747C79.0701 22.7422 79.005 22.0849 79.005 21.6906C79.005 21.2962 79.005 20.8799 79.005 20.4856C79.005 20.0473 78.9833 20.135 79.3958 19.6968L79.9604 19.0614L82.4371 22.7203H84.2181C84.1747 22.5889 84.1529 22.5669 84.0444 22.4793C83.2188 21.8658 82.3937 20.4636 82.1544 19.4339C82.0241 18.9519 81.9155 18.4261 81.9155 17.8345C81.9155 17.1991 81.9807 16.8266 82.1109 16.2351L82.4588 15.1834C82.524 15.0519 82.5457 14.9424 82.6108 14.8329C82.8497 14.3946 83.0234 14.1098 83.3495 13.6935L83.8055 13.1896C83.9141 13.102 84.2398 12.8172 84.3049 12.7295H82.3285C82.2851 12.8829 82.2417 12.861 82.1544 12.9705C82.0675 13.0801 82.0241 13.1239 81.9372 13.2115L81.1121 14.1974C80.9597 14.3728 80.8294 14.5042 80.6991 14.7014L79.2438 16.4322C79.157 16.5199 79.0918 16.6076 79.0267 16.6732V13.1239C79.0267 12.9267 79.0918 12.7076 78.8964 12.7076H76.246V22.6108H76.2243ZM46.2255 22.6108C46.2255 22.6984 46.2473 22.7422 46.3559 22.7422H53.633C53.7198 22.7422 53.7632 22.7203 53.7632 22.6108V20.2664H49.0061V12.7733H46.2473V22.6108H46.2255ZM115.477 22.6108C115.477 22.6984 115.498 22.7422 115.607 22.7422H118.257V12.7733H115.498V22.6108H115.477ZM23.4603 0.350553V1.84043C23.721 1.77469 23.9817 1.73088 24.2423 1.66515C25.1329 1.44602 24.9375 1.88423 24.9375 0C24.8071 0.0219274 23.5689 0.306746 23.4603 0.350553ZM23.4603 34.8583C23.4603 35.0117 23.6124 35.0117 23.7427 35.0336C24.0686 35.0993 24.6985 35.2746 24.9375 35.2746C24.9375 33.6094 25.0461 33.7847 24.6333 33.6971C24.2423 33.6313 23.8296 33.478 23.4386 33.478V34.8583H23.4603ZM21.6791 34.6173L23.1345 34.9021V33.6971C23.1345 33.478 23.1779 33.4341 23.0476 33.3684L21.7008 33.1055L21.6791 34.6173ZM18.0948 33.8504C18.0948 34.0257 18.4642 34.0257 18.7682 34.0695C19.0289 34.1134 19.333 34.1791 19.572 34.1791C19.572 32.4482 19.7675 32.7768 18.8986 32.6454C18.6162 32.6016 18.3773 32.5578 18.0948 32.5578V33.8504ZM21.6791 0.723033V2.19098C22.0701 2.14712 22.7652 1.94997 23.1345 1.94997V0.416287C22.8955 0.503902 21.918 0.613491 21.6791 0.723033ZM19.9196 1.02973V2.49773C20.0282 2.49773 21.2229 2.30052 21.2664 2.27859C21.4184 2.19098 21.3533 1.99378 21.3533 1.55561C21.3533 1.29267 21.3533 1.02973 21.3533 0.76684C21.136 0.810648 20.897 0.854455 20.6581 0.89831C20.4409 0.942117 20.1585 1.02973 19.9196 1.02973ZM14.5106 1.77469V3.15498C15.032 3.15498 15.4882 3.02355 15.9878 3.02355V1.59942L14.5106 1.77469ZM12.686 2.0157C12.686 3.48365 12.5991 3.28645 12.9249 3.26452L14.1631 3.1769V1.8185C13.859 1.8185 13.6635 1.84043 13.3811 1.86231C12.9249 1.88423 12.686 1.86231 12.686 2.0157ZM16.3136 33.7409L17.769 33.96V32.492C17.5735 32.492 16.4222 32.3606 16.3136 32.3167V33.7409ZM10.8612 2.0157V3.39599L11.9691 3.35218C12.1212 3.35218 12.1646 3.30837 12.3384 3.30837V1.92804C12.1429 1.92804 12.1646 1.94997 12.0126 1.97185C11.8822 1.97185 11.7301 1.97185 11.5998 1.97185C11.3609 1.99378 11.1654 2.0157 10.8612 2.0157ZM10.8612 33.2808C11.3609 33.2808 11.8605 33.3684 12.3384 33.3684V31.9881C11.8605 31.9881 11.3392 31.9005 10.8612 31.9005V33.2808ZM7.2336 2.14712V2.84828C7.2336 3.61512 6.95119 3.48365 8.71072 3.48365V2.10332C8.05904 2.10332 7.86357 2.08144 7.2336 2.14712ZM16.3136 1.55561V2.9797C16.7698 2.93589 17.2911 2.80442 17.769 2.80442V1.3584C17.6821 1.40221 16.4874 1.55561 16.3136 1.55561ZM7.2336 31.9443V33.0617C7.2336 33.1493 7.25532 33.1931 7.36393 33.1931H8.73244V31.8128H7.36393C7.25532 31.8128 7.2336 31.8348 7.2336 31.9443ZM12.686 33.2808C12.686 33.4341 12.8163 33.4123 12.9683 33.4123C13.2725 33.4123 13.6852 33.4999 14.1631 33.4999V32.1196C13.6417 32.1196 13.229 32.0319 12.686 32.0319V33.2808ZM5.40893 2.23479V3.35218C5.40893 3.4398 5.43064 3.48365 5.53925 3.48365H6.90776V2.14712C6.77743 2.14712 6.75572 2.10332 6.62539 2.10332H5.56097C5.43064 2.10332 5.40893 2.12524 5.40893 2.23479ZM23.4603 30.2792C23.4603 31.7909 23.2648 31.4623 24.2206 31.6376C25.1329 31.8128 24.9375 32.0539 24.9375 30.5202C24.9375 30.3668 24.7637 30.3668 24.6116 30.3449L23.7644 30.1915C23.5907 30.1696 23.4603 30.1039 23.4603 30.2792ZM23.4603 3.81227V5.14875C23.6993 5.12687 23.9817 5.06114 24.2423 5.01733C24.3509 4.9954 24.5247 4.97348 24.6333 4.9516C25.0678 4.88586 24.9592 4.9516 24.9592 3.57126C24.6551 3.57126 23.7644 3.74654 23.4603 3.81227ZM25.2416 3.48365V4.82013C25.524 4.82013 25.7412 4.75439 26.0019 4.71058C26.8708 4.53531 26.697 4.88586 26.697 3.19883L25.2416 3.48365ZM9.05828 33.1931L10.5354 33.237V31.9005C10.3182 31.9005 10.3182 31.8567 10.0792 31.8567H9.03656V33.1931H9.05828ZM25.2416 1.90616C25.2416 3.24264 25.1547 3.19883 25.524 3.11117L26.6752 2.87016V1.48987C26.458 1.48987 25.8281 1.66515 25.5457 1.73088C25.4154 1.75276 25.2416 1.75276 25.2416 1.90616ZM25.2416 31.7252C25.2416 31.9005 25.5674 31.8786 25.9149 31.9662C26.1322 32.01 26.4797 32.0977 26.6752 32.0977V30.7174C26.4146 30.6516 25.4588 30.4764 25.2198 30.4764V31.7252H25.2416ZM21.6791 32.8207C21.8746 32.8426 22.2004 32.9083 22.3959 32.9522C22.6132 32.996 22.9173 33.0836 23.1345 33.0836V31.7471C22.7869 31.7471 22.157 31.528 21.6791 31.528V32.8207ZM21.6791 31.1994L23.1345 31.4404V30.1039C22.7435 30.082 22.0267 29.8848 21.6791 29.8848V31.1994ZM21.6791 2.4758V3.76847C22.2004 3.76847 22.8087 3.57126 23.1345 3.54938V2.21286C22.7652 2.25671 22.0484 2.4758 21.6791 2.4758ZM21.6791 4.09709V5.38976L23.1345 5.17068V3.8342L21.6791 4.09709ZM5.40893 17.1553V18.1631C5.40893 18.2508 5.43064 18.2946 5.53925 18.2946H6.90776V17.0895C6.77743 17.0895 6.75572 17.0457 6.62539 17.0457H5.56097C5.43064 17.0238 5.40893 17.0457 5.40893 17.1553ZM14.5106 31.8567C14.7062 31.9005 15.0754 31.9224 15.2926 31.9443C16.1616 31.9881 15.9878 32.3825 15.9878 30.7831C15.6402 30.7831 15.1189 30.6516 14.5106 30.6516V31.8567ZM4.50162e-07 15.2272C0.23895 15.2272 0.282395 15.271 0.543064 15.271H1.49886V14.1536C1.49886 14.066 1.47713 14.0222 1.36852 14.0222H4.50162e-07V15.2272ZM4.50162e-07 20.0693V21.2743H1.36852C1.45541 21.2743 1.49886 21.2524 1.49886 21.1428C1.49886 19.9378 1.58574 20.0035 1.21646 20.0035L4.50162e-07 20.0693ZM14.5106 30.3668C14.9885 30.3668 15.5316 30.4982 15.9878 30.4982V29.2494C15.4664 29.2494 15.0537 29.1618 14.5106 29.1618V30.3668ZM4.50162e-07 7.60267C4.50162e-07 7.82175 0.304118 7.69028 0.695123 7.73409C0.934069 7.75602 1.19474 7.75602 1.49886 7.75602V6.55101C0.999237 6.55101 0.499618 6.46335 0.0217228 6.46335V7.60267H4.50162e-07ZM0.130336 21.5591H4.50162e-07V22.7642H1.36852C1.45541 22.7642 1.49886 22.7422 1.49886 22.6327V21.5153C0.977514 21.5153 0.629955 21.5591 0.130336 21.5591ZM4.50162e-07 12.2256L1.47713 12.2694V11.0644C1.19474 11.0644 1.06441 11.0206 0.782009 11.0206H0L4.50162e-07 12.2256ZM3.58421 11.2397C3.58421 12.5323 3.41044 12.3351 4.27934 12.3133C4.60516 12.3133 4.80067 12.3571 5.06133 12.3571V11.152C4.931 11.152 4.90928 11.1082 4.77896 11.1082H3.71455C3.62766 11.1082 3.58421 11.1301 3.58421 11.2397ZM4.50162e-07 27.6062V28.8112L1.47713 28.7236V27.5185C0.977514 27.5185 0.477895 27.5624 4.50162e-07 27.6062ZM4.50162e-07 9.59645V10.7138C0.543064 10.7138 0.934069 10.7576 1.47713 10.7576V9.55264L0.282395 9.50878C0.152058 9.50878 4.50162e-07 9.42117 4.50162e-07 9.59645ZM4.50162e-07 29.096V30.3011C0.521341 30.3011 0.999237 30.2134 1.47713 30.2134V29.0084L0.369281 29.0522C0.217227 29.0741 0.195504 29.096 4.50162e-07 29.096ZM3.58421 14.1974V15.271H4.36621C4.67034 15.271 4.77896 15.3149 5.06133 15.3149V14.066H3.69283C3.62766 14.066 3.58421 14.0879 3.58421 14.1974ZM3.58421 30.5202C3.58421 32.01 3.2801 31.5718 5.06133 31.5718V30.3668L3.86661 30.4106C3.73627 30.3887 3.58421 30.3668 3.58421 30.5202ZM1.82469 17.1553V18.2727H3.25838V17.0238H1.9333C1.84642 17.0238 1.82469 17.0457 1.82469 17.1553ZM3.58421 6.77009V7.84368C3.84489 7.84368 3.93178 7.88749 4.21417 7.88749H5.08308V6.68243C4.75724 6.68243 4.30106 6.70436 3.99694 6.66055C3.82316 6.63863 3.58421 6.59482 3.58421 6.77009ZM3.58421 9.72791V10.7357C3.58421 10.8234 3.60594 10.8672 3.71455 10.8672H5.08308V9.66218H4.01866C3.80144 9.64025 3.58421 9.50878 3.58421 9.72791ZM5.40893 5.34596C5.40893 5.95945 5.32203 6.41954 5.53925 6.41954H6.90776V5.21449H5.53925C5.43064 5.23641 5.40893 5.25834 5.40893 5.34596ZM5.40893 18.6451C5.40893 19.2586 5.32203 19.7187 5.53925 19.7187H6.90776V18.5137H5.53925C5.43064 18.5137 5.40893 18.5575 5.40893 18.6451ZM5.40893 21.603C5.40893 22.2164 5.32203 22.6765 5.53925 22.6765H6.90776V21.4715H5.53925C5.43064 21.4715 5.40893 21.5153 5.40893 21.603ZM7.2336 5.34596C7.2336 5.95945 7.1467 6.41954 7.36393 6.41954H8.73244V5.21449H7.36393C7.25532 5.23641 7.2336 5.25834 7.2336 5.34596ZM3.58421 20.1569C3.58421 20.7704 3.49733 21.2305 3.71455 21.2305H5.08308V20.0254H3.71455C3.62766 20.0254 3.58421 20.0473 3.58421 20.1569ZM3.58421 23.1147C3.58421 23.7282 3.49733 24.1883 3.71455 24.1883H5.08308V22.9832H3.71455C3.62766 22.9832 3.58421 23.0052 3.58421 23.1147ZM5.40893 12.7295C5.40893 13.343 5.32203 13.8031 5.53925 13.8031H6.90776V12.5981H5.53925C5.43064 12.5981 5.40893 12.6419 5.40893 12.7295ZM5.40893 15.6873C5.40893 16.3008 5.32203 16.7609 5.53925 16.7609H6.90776V15.5558H5.53925C5.43064 15.5558 5.40893 15.5997 5.40893 15.6873ZM7.2336 28.9865C7.2336 29.6 7.1467 30.0601 7.36393 30.0601H8.73244V28.855H7.36393C7.25532 28.855 7.2336 28.877 7.2336 28.9865ZM3.58421 15.6873C3.58421 16.3008 3.49733 16.7609 3.71455 16.7609H5.08308V15.5558H3.71455C3.62766 15.5558 3.58421 15.5997 3.58421 15.6873ZM3.58421 27.5624C3.58421 28.7236 3.49733 28.6579 3.86661 28.6579L5.06133 28.614V27.409L4.10556 27.4309C3.91006 27.4528 3.58421 27.3652 3.58421 27.5624ZM3.58421 29.0303C3.58421 30.4325 3.54077 30.1039 3.82316 30.1039H5.06133V28.8988H3.69283C3.62766 28.8988 3.58421 28.9208 3.58421 29.0303ZM5.40893 22.9832C5.40893 24.5388 5.32203 24.1444 5.82162 24.1444H6.88605V22.9394H5.93024C5.69129 22.9394 5.64787 22.9832 5.40893 22.9832ZM5.40893 12.2256C5.40893 12.3133 5.43064 12.3571 5.53925 12.3571H6.90776V11.152H5.43064V12.2256H5.40893ZM3.58421 18.6451V19.7406H5.06133V18.5356H3.69283C3.62766 18.5137 3.58421 18.5575 3.58421 18.6451ZM5.40893 28.9865V30.0601H6.88605V28.855H5.51754C5.43064 28.855 5.40893 28.877 5.40893 28.9865ZM3.58421 26.0725V27.1461H5.06133V25.9411H3.69283C3.62766 25.9411 3.58421 25.9629 3.58421 26.0725ZM7.60287 3.76847H7.2336V4.84205C7.2336 4.9954 7.3205 4.97348 7.51597 4.97348C7.97219 4.97348 8.25455 4.92967 8.71072 4.92967V3.72466C8.29798 3.72466 8.03732 3.76847 7.60287 3.76847ZM7.2336 31.528C7.45083 31.528 7.45083 31.5718 7.68977 31.5718H8.73244V30.3668H7.25531V31.528H7.2336ZM1.82469 8.19423C1.82469 9.33351 1.7378 9.31163 2.06364 9.33351L3.25838 9.37731V8.17231C2.86737 8.08464 2.4112 8.17231 2.06364 8.10657C1.97675 8.08465 1.82469 7.99703 1.82469 8.19423ZM1.82469 26.0287V27.2337L3.25838 27.1899V25.9849C2.99771 25.9849 2.02019 25.9411 1.82469 26.0287ZM1.82469 13.7812H2.38948C2.73704 13.7812 2.91082 13.825 3.25838 13.825V12.5761H1.82469V13.7812ZM1.82469 23.027V24.2321H2.65015C2.93254 24.2321 2.99771 24.1883 3.2801 24.1883V22.9832C2.73704 22.9832 2.34603 23.027 1.82469 23.027ZM1.82469 24.5169V25.7219C2.34603 25.7219 2.73704 25.6781 3.2801 25.6781V24.4731H2.54153C2.2157 24.4731 2.10708 24.5169 1.82469 24.5169ZM1.82469 7.82175C2.36775 7.82175 2.73704 7.86556 3.2801 7.86556V6.66055C2.91082 6.66055 2.71532 6.6167 2.32431 6.6167H1.82469V7.82175ZM1.82469 28.9865V30.1915H2.06364C2.51981 30.1915 2.8022 30.1477 3.25838 30.1477V28.9427C2.73704 28.9427 2.34603 28.9865 1.82469 28.9865ZM1.82469 22.7422H3.25838V21.5372H1.82469V22.7422ZM1.82469 21.2305H3.25838V20.0254H1.82469V21.2305ZM1.82469 15.271H3.25838V14.066H1.82469V15.271Z" fill="#323232"/>
</svg>
