<svg width="149" height="137" viewBox="0 0 149 137" fill="none" xmlns="http://www.w3.org/2000/svg">
<path d="M50.7237 12.2165C51.5423 5.89282 57.7506 0.750584 64.5509 0.575696L135.832 1.16333C142.437 1.53164 147.973 6.17851 148.773 12.3023C148.595 34.8451 147.51 57.4515 146.975 80.0209C146.889 85.9065 140.173 92.4894 133.787 92.4368L99.1379 92.1512L98.1786 124.494C98.0053 130.337 90.5499 136.263 84.3514 136.135L12.9049 135.546C6.32373 134.994 0.967318 130.544 0.129407 124.408C0.429086 101.41 1.20334 78.3159 2.13429 55.3115C2.81544 49.9697 9.27739 44.2255 15.115 44.2736L49.7644 44.5593L50.7237 12.2165ZM99.2291 89.0785L133.713 89.3628C138.41 89.4015 143.577 84.3336 143.667 79.9937L145.627 13.9167C145.383 8.62062 141.294 4.63115 135.581 4.22875C111.347 4.18886 87.0732 3.53869 62.8663 3.86025C58.9412 4.23649 54.1284 8.75067 54.0201 12.4035L53.0653 44.5924L87.8804 44.8794C93.6479 44.927 100.341 51.3836 100.182 56.7356L99.2227 89.0784L99.2291 89.0785ZM49.6732 47.632L15.0238 47.3463C10.4927 47.309 5.2581 52.5066 5.23521 56.7168L3.28002 122.634C3.48721 128.113 7.6022 132.079 13.4868 132.477L84.4425 133.062C88.9777 133.176 94.7506 128.528 94.8758 124.307L95.8306 92.118L61.0155 91.831C55.1397 91.7825 48.5574 85.2498 48.7184 79.8209L49.6732 47.632ZM52.9807 47.6592L52.7916 54.0354L53.0333 54.2684L96.0376 54.6229L96.2253 54.3106C95.3073 52.1653 93.4078 50.0118 91.1565 48.9747C90.5779 48.7094 88.3439 47.9508 87.7958 47.9462L52.9807 47.6592ZM96.8512 57.7089L52.6934 57.3449L52.42 66.5629L96.5778 66.9269L96.8512 57.7089ZM96.2086 79.3715L96.4798 70.2305L96.2381 69.9975L52.5711 69.6375L52.3157 69.8664L52.0445 79.0074L96.2023 79.3714L96.2086 79.3715ZM96.1175 82.4441L52.8647 82.0876L52.677 82.3999C53.7753 84.9138 55.8226 87.027 58.5651 88.0504C59.2145 88.2926 60.8005 88.7617 61.4378 88.767L95.9215 89.0512L96.1175 82.4441Z" fill="#323232"/>
</svg>
