<svg width="1920" height="1401" viewBox="0 0 1920 1401" fill="none" xmlns="http://www.w3.org/2000/svg">
<path d="M14.3511 1V1400" stroke="#323232"/>
<path d="M107.188 1V1400" stroke="#323232"/>
<path d="M200.026 1V1400" stroke="#323232"/>
<path d="M292.864 1V1400" stroke="#323232"/>
<path d="M385.702 1V1400" stroke="#323232"/>
<path d="M478.54 1V1400" stroke="#323232"/>
<path d="M571.377 1V1400" stroke="#323232"/>
<path d="M664.215 1V1400" stroke="#323232"/>
<path d="M757.053 1V1400" stroke="#323232"/>
<path d="M849.89 1V1400" stroke="#323232"/>
<path d="M942.728 1V1400" stroke="#323232"/>
<path d="M1035.57 1V1400" stroke="#323232"/>
<path d="M1128.4 1V1400" stroke="#323232"/>
<path d="M1221.24 1V1400" stroke="#323232"/>
<path d="M1314.08 1V1400" stroke="#323232"/>
<path d="M1406.92 1V1400" stroke="#323232"/>
<path d="M1499.75 1V1400" stroke="#323232"/>
<path d="M1592.59 1V1400" stroke="#323232"/>
<path d="M1685.43 1V1400" stroke="#323232"/>
<path d="M1778.27 1V1400" stroke="#323232"/>
<path d="M1871.11 1V1400" stroke="#323232"/>
<path d="M2056.78 1L-357 0.999894" stroke="#323232"/>
<path d="M2056.78 94.2666L-357 94.2665" stroke="#323232"/>
<path d="M2056.78 187.533L-357 187.533" stroke="#323232"/>
<path d="M2056.78 280.8L-357 280.8" stroke="#323232"/>
<path d="M2056.78 374.067L-357 374.067" stroke="#323232"/>
<path d="M2056.78 467.333L-357 467.333" stroke="#323232"/>
<path d="M2056.78 560.6L-357 560.6" stroke="#323232"/>
<path d="M2056.78 653.867L-357 653.867" stroke="#323232"/>
<path d="M2056.78 747.133L-357 747.133" stroke="#323232"/>
<path d="M2056.78 840.4L-357 840.4" stroke="#323232"/>
<path d="M2056.78 933.667L-357 933.666" stroke="#323232"/>
<path d="M2056.78 1026.93L-357 1026.93" stroke="#323232"/>
<path d="M2056.78 1120.2L-357 1120.2" stroke="#323232"/>
<path d="M2056.78 1213.47L-357 1213.47" stroke="#323232"/>
<path d="M2056.78 1306.73L-357 1306.73" stroke="#323232"/>
<path d="M2056.78 1400L-357 1400" stroke="#323232"/>
</svg>
