<svg width="24" height="49" viewBox="0 0 24 49" fill="none" xmlns="http://www.w3.org/2000/svg">
<path d="M8.55591 25.2891C8.55591 25.2891 7.31867 26.0107 9.43638 26.2555C12.0003 26.5516 13.315 26.5134 16.1342 25.9725C16.1342 25.9725 16.8745 26.4492 17.92 26.8486C11.5789 29.5924 3.58025 26.6931 8.55591 25.2891Z" fill="#323232"/>
<path d="M7.73719 21.708C7.73719 21.708 6.34692 22.7518 8.46459 22.9706C11.2074 23.2536 13.3637 23.2797 17.1142 22.5451C17.1142 22.5451 17.6369 23.073 18.4408 23.37C10.7989 25.6241 2.26368 23.5376 7.73719 21.708Z" fill="#323232"/>
<path d="M10.4326 15.6262C11.9887 17.4426 10.0241 19.0794 10.0241 19.0794C10.0241 19.0794 13.9921 17.0181 12.1676 14.4289C10.4713 12.0194 9.15657 10.8212 16.2241 6.68559C16.2241 6.67258 5.1379 9.46842 10.4326 15.6262Z" fill="#323232"/>
<path d="M22.823 27.9294C22.823 27.9294 23.7412 28.6889 21.8153 29.2818C18.1543 30.4024 6.58313 30.7375 3.38032 29.3209C2.23254 28.8182 4.38801 28.1099 5.0767 27.9554C5.79121 27.8009 6.18672 27.827 6.18672 27.827C4.89785 26.913 -2.11806 29.6168 2.62711 30.4034C15.5388 32.5283 26.1779 29.4623 22.823 27.9294Z" fill="#323232"/>
<path d="M9.67812 17.9975C9.67812 17.9975 3.79716 19.4145 7.59826 19.9173C9.20609 20.1361 12.3951 20.0849 15.3803 19.827C17.8169 19.6212 20.2665 19.1827 20.2665 19.1827C20.2665 19.1827 19.4119 19.556 18.7868 19.9816C12.8164 21.5662 1.27105 20.8316 4.58724 19.2088C7.39454 17.8429 9.67812 17.9975 9.67812 17.9975Z" fill="#323232"/>
<path d="M10.1153 23.9484C16.188 20.7664 13.3807 17.7009 11.4161 18.1123C10.9312 18.2157 10.7274 18.306 10.7274 18.306C10.7274 18.306 10.9063 18.023 11.2502 17.9066C15.1287 16.5278 18.1139 21.9646 10 24.116C10 24.115 10.0895 24.0256 10.1153 23.9484Z" fill="#323232"/>
<path d="M15.4836 0C15.4836 0 18.8514 3.40103 12.2946 8.61939C7.03874 12.8062 11.0952 15.2027 12.2946 17.9343C9.21998 15.1384 6.97511 12.6777 8.4797 10.3846C10.6997 7.03389 16.8361 5.39806 15.4836 0Z" fill="#323232"/>
<path d="M6.58019 32.5936C12.4105 32.9668 21.3661 32.3879 21.5828 29.5928C21.5828 29.5928 21.1743 30.6492 16.7602 31.486C11.7845 32.426 5.64808 32.3227 2 31.7177C2.01293 31.7177 2.75232 32.3488 6.58019 32.5936Z" fill="#323232"/>
<path d="M8.31279 44.8878C7.76424 45.3644 7.17699 45.6354 6.65427 45.6354C5.91394 45.6354 5.50643 45.1848 5.50643 44.4632C5.50643 43.6775 5.93976 43.1104 7.66285 43.1104H8.30084V44.8887H8.31279V44.8878ZM9.83031 46.6139V41.267C9.83031 39.9012 9.05222 39 7.20187 39C6.11771 39 5.16072 39.2709 4.38263 39.6182L4.59929 40.5715C5.21142 40.3397 6.00244 40.134 6.76765 40.134C7.83892 40.134 8.299 40.5715 8.299 41.4737V42.1562H7.77623C5.17365 42.1562 4 43.1737 4 44.7071C4 46.0338 4.77814 46.7815 6.23293 46.7815C7.1641 46.7815 7.86568 46.3951 8.52945 45.815L8.64472 46.6269H9.83121V46.6139H9.83031Z" fill="#323232"/>
<path d="M15.1717 46.4847H13.2836L11 39H12.6585L14.0746 43.5988L14.3936 44.9776C15.1081 42.9807 15.618 40.9456 15.8604 39H17.4683C17.0211 41.4735 16.2559 44.1788 15.1717 46.4847Z" fill="#323232"/>
<path d="M22.3377 44.8878C21.7892 45.3644 21.2019 45.6354 20.6791 45.6354C19.9388 45.6354 19.5314 45.1848 19.5314 44.4632C19.5314 43.6775 19.9646 43.1104 21.6877 43.1104H22.3248L22.3377 44.8878ZM23.8552 46.6139V41.267C23.8552 39.9012 23.0771 39 21.2148 39C20.1306 39 19.1736 39.2709 18.3955 39.6182L18.6122 40.5715C19.2243 40.3397 20.0153 40.134 20.7805 40.134C21.8519 40.134 22.3119 40.5715 22.3119 41.4737V42.1562H21.7762C19.1736 42.1562 18 43.1737 18 44.7071C18 46.0338 18.7781 46.7815 20.2329 46.7815C21.177 46.7815 21.8657 46.3951 22.5294 45.815L22.6447 46.6269H23.857V46.6139H23.8552Z" fill="#323232"/>
<path d="M2.65332 47.4013C2.22 48.0456 1.51748 48.5484 0.752273 48.8314L0 47.9423C0.587251 47.6462 1.0842 47.1564 1.31375 46.7058C1.51748 46.3064 1.59399 45.7785 1.59399 44.5412V36H3.20187V44.4258C3.21386 46.0746 3.0866 46.744 2.65332 47.4013Z" fill="#323232"/>
</svg>
