<svg width="106" height="36" viewBox="0 0 106 36" fill="none" xmlns="http://www.w3.org/2000/svg">
<mask id="mask0_3322_162" style="mask-type:luminance" maskUnits="userSpaceOnUse" x="0" y="0" width="35" height="36">
<path d="M34.9283 0H0V35.2746H34.9283V0Z" fill="white"/>
</mask>
<g mask="url(#mask0_3322_162)">
<path d="M34.4022 7.98057C34.3984 7.96418 34.3884 7.95026 34.3834 7.93381C34.3721 7.90473 34.3634 7.87437 34.3483 7.84787C34.3383 7.83013 34.3233 7.81498 34.3108 7.79853C34.2945 7.77703 34.2808 7.75301 34.262 7.73408C34.2457 7.71764 34.2257 7.70624 34.2082 7.69232C34.1881 7.67593 34.1706 7.65819 34.1481 7.64556L27.5818 3.82752C27.4128 3.72889 27.205 3.72889 27.036 3.82752L20.4697 7.64556C20.4471 7.65819 20.4296 7.67717 20.4096 7.69232C20.392 7.70624 20.372 7.71764 20.3558 7.73408C20.337 7.75301 20.3232 7.77703 20.3069 7.79853C20.2944 7.81498 20.2794 7.83013 20.2694 7.84787C20.2544 7.87437 20.2444 7.90473 20.2343 7.93381C20.2281 7.94897 20.2193 7.96418 20.2156 7.98057C20.2031 8.02738 20.1968 8.07539 20.1968 8.12472V15.3765L14.7247 18.5586V4.37113C14.7247 4.32184 14.7184 4.27379 14.7059 4.22703C14.7022 4.21058 14.6921 4.19666 14.6871 4.18026C14.6759 4.15119 14.6671 4.12082 14.6521 4.09427C14.6421 4.07658 14.627 4.06143 14.6145 4.04498C14.5982 4.02348 14.5845 3.99946 14.5657 3.98049C14.5494 3.96404 14.5294 3.95269 14.5118 3.93878C14.4918 3.92233 14.4743 3.90465 14.4518 3.89201L7.8855 0.0739693C7.71651 -0.0246565 7.50868 -0.0246565 7.33965 0.0739693L0.773401 3.89201C0.750867 3.90465 0.73334 3.92362 0.713312 3.93878C0.695786 3.95269 0.675753 3.96404 0.659477 3.98049C0.6407 3.99946 0.626931 4.02348 0.610655 4.04498C0.598137 4.06143 0.583112 4.07658 0.573096 4.09427C0.558076 4.12082 0.548059 4.15119 0.538043 4.18026C0.531784 4.19542 0.523023 4.21058 0.519266 4.22703C0.506747 4.27379 0.500488 4.32184 0.500488 4.37113V27.0847C0.500488 27.282 0.605647 27.4652 0.774657 27.5639L13.9084 35.2C13.9372 35.2164 13.9685 35.2265 13.9986 35.2379C14.0123 35.243 14.0261 35.2518 14.0411 35.2556C14.0874 35.2682 14.1338 35.2746 14.1813 35.2746C14.2289 35.2746 14.2753 35.2682 14.3216 35.2556C14.3341 35.2518 14.3454 35.2442 14.3579 35.2404C14.3904 35.229 14.423 35.2176 14.453 35.2012L27.5868 27.5652C27.7571 27.4665 27.861 27.2845 27.861 27.086V19.8342L34.1531 16.1755C34.3233 16.0769 34.4272 15.8948 34.4272 15.6963V8.12472C34.421 8.07539 34.4134 8.02738 34.4022 7.98057ZM14.1713 26.4488L8.70924 23.3273L14.4455 19.9923L20.7388 16.3335L26.2059 19.5118L22.1948 21.8242L14.1713 26.4488ZM26.7593 12.2626V18.5586L24.4608 17.2223L21.2859 15.3765V9.08047L23.5844 10.4168L26.7593 12.2626ZM27.3064 4.94386L32.776 8.12472L27.3064 11.3056L21.8368 8.12472L27.3064 4.94386ZM10.4519 21.0403L8.15342 22.3767V8.50903L11.3282 6.66326L13.6267 5.32693V19.1933L10.4519 21.0403ZM7.60634 1.19155L13.0759 4.37241L7.60634 7.55328L2.13673 4.37241L7.60634 1.19155ZM1.58589 5.32693L3.8844 6.66326L7.05926 8.50903V23.3312V23.3324V23.3337C7.05926 23.3552 7.06549 23.3754 7.06799 23.3956C7.07177 23.4222 7.07177 23.45 7.07927 23.4766V23.4778C7.08555 23.4993 7.09679 23.5195 7.10557 23.5398C7.11557 23.5625 7.12185 23.5878 7.13436 23.6093C7.13436 23.6093 7.13436 23.6105 7.13559 23.6105C7.14687 23.6295 7.16315 23.646 7.17694 23.6636C7.19195 23.6839 7.20446 23.7041 7.22197 23.7218L7.22324 23.7231C7.23825 23.7382 7.25832 23.7496 7.27583 23.7635C7.29584 23.7787 7.31335 23.7964 7.33464 23.809C7.33592 23.809 7.33592 23.809 7.33714 23.8103C7.33842 23.8103 7.33842 23.8116 7.33965 23.8116L13.6292 27.4059V33.7638L1.58589 26.7649V5.32693ZM26.7593 26.7649L14.7197 33.765V27.4059L23.6358 22.2654L26.7593 20.4651V26.7649ZM33.3256 15.3765L27.8535 18.5586V12.2626L31.0283 10.4168L33.3268 9.08047V15.3765H33.3256Z" fill="#323232"/>
</g>
<mask id="mask1_3322_162" style="mask-type:luminance" maskUnits="userSpaceOnUse" x="41" y="9" width="65" height="17">
<path d="M105.387 9.59668H41.583V25.6792H105.387V9.59668Z" fill="white"/>
</mask>
<g mask="url(#mask1_3322_162)">
<path d="M44.0895 9.60156V22.7424H48.7976V25.0058H41.583V9.60156H44.0895ZM57.6382 16.135V14.7496H60.0205V25.0114H57.6495V23.6204C57.3224 24.1335 56.8707 24.5326 56.2835 24.8176C55.6963 25.1198 55.0978 25.2623 54.5054 25.2623C53.7317 25.2623 53.026 25.1198 52.3883 24.8347C51.7648 24.5618 51.2035 24.162 50.74 23.6603C50.2802 23.1625 49.9163 22.5825 49.6671 21.95C49.4108 21.2891 49.2824 20.5846 49.289 19.8749C49.289 19.1565 49.4188 18.4667 49.6727 17.8224C49.9191 17.1816 50.2831 16.5936 50.7452 16.0894C51.2049 15.5849 51.7619 15.1813 52.3827 14.9035C53.026 14.6185 53.7374 14.476 54.4997 14.476C55.0926 14.476 55.685 14.6242 56.2722 14.915C56.8594 15.2114 57.3111 15.6104 57.6269 16.1235L57.6382 16.135ZM57.4239 21.1348C57.5726 20.7336 57.6491 20.3089 57.6495 19.8805C57.6495 19.4359 57.5707 19.0254 57.4239 18.6263C57.2889 18.2423 57.0817 17.8881 56.8141 17.583C56.5474 17.2895 56.225 17.053 55.8658 16.8875C55.4796 16.7087 55.0595 16.6172 54.6352 16.6195C54.1834 16.6195 53.777 16.7164 53.4155 16.8932C53.0619 17.0592 52.7433 17.2936 52.4785 17.583C52.2118 17.8867 52.0083 18.2415 51.8799 18.6263C51.7402 19.0293 51.6694 19.4535 51.6713 19.8805C51.6713 20.3195 51.7388 20.7357 51.8799 21.1348C52.0154 21.5339 52.2189 21.8759 52.4785 22.1609C52.7409 22.4589 53.0595 22.7011 53.4155 22.8736C53.777 23.0446 54.1834 23.1358 54.6352 23.1358C55.0869 23.1358 55.499 23.0503 55.8658 22.8736C56.2259 22.7048 56.5483 22.4644 56.8141 22.1666C57.0798 21.8666 57.2866 21.5184 57.4239 21.1404V21.1348ZM61.895 25.0114V14.7496H68.342V17.1098H64.266V25.0058H61.895V25.0114ZM76.9513 16.135V14.7496H79.3223V25.0114H76.9513V23.6204C76.635 24.1335 76.1776 24.5326 75.5961 24.8176C75.0037 25.1198 74.4108 25.2623 73.8123 25.2623C73.0391 25.2623 72.3334 25.1198 71.6952 24.8347C71.0717 24.5618 70.5105 24.162 70.0469 23.6603C69.5872 23.1625 69.2232 22.5825 68.9745 21.95C68.7196 21.2887 68.5931 20.5843 68.6016 19.8749C68.6016 19.1565 68.7257 18.4667 68.9801 17.8224C69.2261 17.1816 69.59 16.5936 70.0526 16.0894C70.5119 15.5849 71.0693 15.1813 71.6896 14.9035C72.3334 14.6185 73.0448 14.476 73.8066 14.476C74.3995 14.476 74.9924 14.6242 75.5796 14.915C76.1663 15.2114 76.6237 15.6104 76.9343 16.1235L76.9513 16.135ZM76.7365 21.1348C76.8814 20.7329 76.9541 20.3082 76.9513 19.8805C76.9513 19.4359 76.8776 19.0254 76.7365 18.6263C76.6034 18.2428 76.3981 17.8886 76.1328 17.583C75.8623 17.2883 75.5361 17.0517 75.1727 16.8875C74.8059 16.7164 74.3938 16.6195 73.9478 16.6195C73.496 16.6195 73.0896 16.7164 72.7228 16.8932C72.3688 17.0592 72.0507 17.2936 71.7859 17.583C71.5187 17.8867 71.3153 18.2415 71.1873 18.6263C71.049 19.0296 70.9806 19.4538 70.9839 19.8805C70.9839 20.3195 71.0519 20.7357 71.1873 21.1348C71.3285 21.5339 71.5258 21.8759 71.7859 22.1609C72.0483 22.4589 72.3669 22.7011 72.7228 22.8736C73.0896 23.0446 73.496 23.1358 73.9478 23.1358C74.3995 23.1358 74.8059 23.0503 75.1783 22.8736C75.5428 22.7062 75.8694 22.4656 76.1385 22.1666C76.4018 21.8661 76.6067 21.518 76.7422 21.1404L76.7365 21.1348ZM88.8516 14.7496H91.2623L87.3671 25.0114H84.3749L80.4797 14.7496H82.879L85.8707 22.6056L88.8516 14.7553V14.7496ZM96.439 14.4874C99.6738 14.4874 101.881 17.3835 101.463 20.7699H93.5766C93.5766 21.6479 94.4688 23.3582 96.5688 23.3582C98.3753 23.3582 99.5893 21.7619 99.5893 21.7619L101.192 23.0161C99.7526 24.5554 98.5787 25.268 96.7326 25.268C93.4468 25.268 91.2226 23.1586 91.2226 19.8691C91.2226 16.8875 93.5261 14.476 96.4333 14.476L96.439 14.4874ZM93.5879 18.9912H99.2901C99.2674 18.7916 98.9511 16.3915 96.422 16.3915C93.8815 16.3915 93.6106 18.7974 93.5879 18.9912ZM103.016 24.9944V9.60156H105.387V25.0058H103.016V24.9944Z" fill="#323232"/>
</g>
</svg>
