<svg width="150" height="155" viewBox="0 0 150 155" fill="none" xmlns="http://www.w3.org/2000/svg">
<path d="M52.0389 109.595C60.19 101.582 77.3496 106.133 88.2143 104.786C96.3185 105.768 102.376 111.712 103.088 119.252C103.516 123.779 103.774 131.013 103.507 135.508C103.334 138.363 101.935 140.34 99.4814 141.898C94.8878 144.818 88.1529 148.429 83.1967 150.88C79.1293 152.887 75.6082 153.522 71.1282 151.889C64.919 149.627 58.4924 144.803 52.2907 142.216C49.8783 140.735 48.4429 138.833 48.1023 136.131C47.5428 131.738 47.4518 124.193 47.6469 119.712C47.8004 116.089 49.3819 112.226 52.055 109.602L52.0389 109.595ZM62.7254 108.139C56.6613 108.721 51.5062 113.346 51.1604 119.092C50.8147 124.837 51.8235 130.586 51.5994 136.109C51.8349 137.208 52.4122 138.275 53.3392 138.999C59.45 141.772 65.8872 146.389 72.0676 148.77C75.5683 150.123 78.0114 149.703 81.2307 148.176C87.1498 145.37 93.2301 141.403 98.8664 138.134C99.4154 137.486 99.8984 136.75 99.9561 135.9C98.8525 125.858 103.378 111.327 89.0336 108.135C80.6771 108.182 70.9909 107.338 62.7173 108.131L62.7254 108.139Z" fill="#323232"/>
<path d="M107.719 90.5597C116.059 89.8549 125.463 90.575 133.859 90.5349C144.114 92.4084 148.699 99.6724 148.04 109.02C147.497 116.696 138.716 119.733 132.495 123.206C126.275 126.68 119.828 130.052 113.594 133.622C111.685 134.332 110.178 132.445 111.511 130.993L141.306 114.501C148.767 107.861 143.435 94.4982 132.919 93.6099C124.758 92.9238 115.407 94.2578 107.126 93.824C104.469 94.3117 101.97 95.345 99.9908 97.0539C98.8686 98.024 98.2835 99.7435 96.4367 98.8794C93.993 97.7319 97.2672 94.9405 98.3603 94.0741C100.984 91.9977 104.253 90.862 107.703 90.5672L107.719 90.5597Z" fill="#323232"/>
<path d="M6.45393 95.8568C9.22963 93.1953 13.401 91.5125 17.4016 91.2428C24.1701 90.7875 34.183 90.7044 40.9721 91.0471C44.5861 91.2315 48.2079 92.3396 51.0512 94.4593C52.2046 95.3145 55.7376 98.2267 53.1127 99.3202C51.3941 100.029 50.8609 98.5111 49.7872 97.6553C47.5499 95.8631 45.0258 94.6867 42.0615 94.364C33.8844 94.8827 24.7264 93.8205 16.6663 94.5526C10.3073 95.1301 5.67026 100.379 5.39694 106.154C5.16863 110.893 6.20892 113.848 10.6014 116.413C19.8398 121.828 30.3412 126.168 39.6895 131.515C41.381 132.846 39.8181 134.958 37.8638 134.25L8.03064 118.681C-0.143126 114.078 0.420656 101.65 6.45412 95.8642L6.45393 95.8568Z" fill="#323232"/>
<path d="M116.998 54.3193C129.546 53.0844 139.646 63.4586 136.546 74.8883C132.909 88.3033 113.454 91.1476 104.935 79.6369C97.5384 69.6468 104.115 55.5866 116.998 54.312L116.998 54.3193ZM118.328 57.4051C107.964 58.0823 101.972 68.5605 107.242 77.0236C112.511 85.4867 126.543 85.8358 131.839 77.0855C137.34 67.9787 129.527 56.6691 118.328 57.4051Z" fill="#323232"/>
<path d="M26.3397 55.0719C39.2549 53.8413 49.5236 64.9088 45.5839 76.5007C41.3929 88.8486 23.5205 91.5689 14.8792 81.1974C6.23798 70.8259 12.9476 56.3508 26.3397 55.0719ZM27.6701 58.1576C8.82364 59.2527 11.3607 85.9494 30.3701 84.3725C48.4175 82.8776 46.0632 57.0885 27.6701 58.1576Z" fill="#323232"/>
<path d="M87.2028 96.406C78.3906 104.735 62.8656 101.782 58.1531 90.8231C52.7537 78.2592 64.8429 65.698 78.9066 69.1436C91.7836 72.2961 96.443 87.682 87.203 96.4134L87.2028 96.406ZM72.2135 71.9042C63.7907 72.7797 58.5311 81.0789 60.954 88.5235C64.6057 99.742 81.0782 101.438 86.9646 91.19C92.5079 81.536 83.8067 70.692 72.2135 71.9042Z" fill="#323232"/>
<path d="M70.3028 13.9023C85.365 12.1957 95.0582 28.1385 85.169 38.5751C83.6256 40.2065 81.8199 40.9384 81.5582 43.4534C81.4506 44.5334 82.0916 47.1444 80.6601 47.5554C77.7575 48.3851 78.0502 44.5986 78.1892 42.8827C78.541 38.6079 82.5719 37.3476 84.3793 33.9033C87.5835 27.7792 84.2872 20.1423 77.3803 17.7016C65.9624 13.6649 55.8089 25.5892 62.594 35.0449C64.2881 37.4033 66.9359 38.4308 68.0847 41.2667C68.629 42.5999 68.8593 45.0444 68.6964 46.45C68.5335 47.8556 66.3212 48.2657 65.6039 47.0226C65.0786 46.1179 65.4232 44.6516 65.2524 43.5888C64.8322 40.8872 61.8405 39.5004 60.1526 37.3859C53.1132 28.5753 58.6168 15.2188 70.3026 13.8949L70.3028 13.9023Z" fill="#323232"/>
<path d="M67.4908 51.0423L79.5182 50.9129C81.6666 51.4198 81.5857 53.8446 79.3954 54.1806C77.4906 54.4699 69.9227 54.5105 67.9646 54.2755C65.8146 54.0125 65.5492 51.7531 67.491 51.0497L67.4908 51.0423Z" fill="#323232"/>
<path d="M44.0784 27.6598C44.3039 27.4436 45.0156 27.2381 45.3574 27.2057C46.541 27.0703 50.0139 27.0341 51.1498 27.2094C53.0936 27.5111 53.3024 30.0444 51.2321 30.4015C50.1852 30.5876 46.3221 30.6271 45.2507 30.4808C43.7476 30.2789 43.0132 28.6812 44.0784 27.6598Z" fill="#323232"/>
<path d="M94.8011 26.8397C95.7048 26.6622 100.23 26.6395 101.08 26.8689C102.982 27.3853 102.898 29.7141 100.867 30.0192C99.8825 30.1678 95.4374 30.1973 94.5547 29.9533C92.7815 29.4728 93.0331 27.1796 94.8011 26.8397Z" fill="#323232"/>
<path d="M85.8949 4.6674C87.282 4.38981 88.2699 5.62327 87.8951 6.84586C87.741 7.35711 85.2443 11.5684 84.8861 11.8892C83.4382 13.2094 81.4311 11.9992 82.0186 10.0653C82.1507 9.62815 84.4751 5.83954 84.847 5.42996C85.1335 5.10978 85.4352 4.7599 85.9029 4.66733L85.8949 4.6674Z" fill="#323232"/>
<path d="M48.2064 14.4552C48.7135 14.3476 48.9942 14.4191 49.4598 14.5557C49.9255 14.6923 54.294 16.9472 54.6925 17.2617C56.3107 18.5268 54.9289 20.556 53.1493 20.1347C52.6683 20.0204 48.3219 17.6989 47.8102 17.3188C46.6323 16.4417 46.7087 14.7707 48.1984 14.4553L48.2064 14.4552Z" fill="#323232"/>
<path d="M96.144 14.0645C97.8327 13.7401 99.0272 15.2601 98.0481 16.5321C97.678 17.0081 93.0679 19.5962 92.387 19.7645C90.7801 20.1695 89.3914 18.5329 90.434 17.253C90.6811 16.948 95.6841 14.1497 96.1358 14.0572L96.144 14.0645Z" fill="#323232"/>
<path d="M91.9418 37.0998C92.4015 37.0073 92.5791 37.0945 92.9804 37.2094C93.6545 37.396 97.604 39.4696 98.2131 39.9154C99.9513 41.2018 98.7138 43.2667 96.6696 42.7811C96.373 42.7096 91.6481 40.2286 91.3307 39.9725C90.1919 39.0655 90.5467 37.3775 91.9338 37.0999L91.9418 37.0998Z" fill="#323232"/>
<path d="M58.3895 4.89568C59.0962 4.80112 59.4459 5.07907 59.9116 5.52604C60.3041 5.9145 62.9816 9.94983 63.1122 10.3774C63.6774 12.213 61.7464 13.3377 60.2882 12.0933C59.8646 11.7347 57.442 8.00768 57.147 7.38191C56.608 6.25559 56.968 5.07746 58.3895 4.89568Z" fill="#323232"/>
<path d="M53.8106 37.4163C55.4529 37.144 56.6639 38.9964 55.4039 40.1894C55.0541 40.5249 50.3319 43.0917 49.8959 43.1766C47.9853 43.5473 46.8683 41.6349 48.3029 40.4183C48.7084 40.075 53.4298 37.4786 53.8027 37.4163L53.8106 37.4163Z" fill="#323232"/>
<path d="M70.9935 57.3987C71.9452 57.2282 75.9838 57.1946 76.8504 57.4313C78.6158 57.9193 78.7722 60.2756 76.6367 60.5742C75.6126 60.7158 71.6381 60.7635 70.7083 60.5495C68.7686 60.1 69.09 57.7323 70.9935 57.3987Z" fill="#323232"/>
<path d="M71.1353 1.72268C72.0408 0.99826 73.7711 1.36083 74.0004 2.52667C74.1938 3.53761 74.3035 7.48339 74.1544 8.49717C73.9117 10.2065 71.1796 10.2365 70.8407 8.52468C70.6384 7.47686 70.552 3.81913 70.6673 2.73172C70.6993 2.42843 70.8933 1.91686 71.1275 1.73014L71.1353 1.72268Z" fill="#323232"/>
</svg>
