<svg width="399" height="55" viewBox="0 0 399 55" fill="none" xmlns="http://www.w3.org/2000/svg">
<path d="M0.130682 12.9702V5.36364H35.9688V12.9702H22.6094V49H13.4901V12.9702H0.130682ZM41.8707 49V5.36364H71.2741V12.9702H51.0966V23.3679H69.7614V30.9744H51.0966V41.3935H71.3594V49H41.8707ZM117.11 20.6406H107.778C107.608 19.4332 107.26 18.3608 106.734 17.4233C106.208 16.4716 105.534 15.6619 104.71 14.9943C103.886 14.3267 102.934 13.8153 101.855 13.4602C100.789 13.1051 99.6317 12.9276 98.3817 12.9276C96.1232 12.9276 94.1559 13.4886 92.4798 14.6108C90.8036 15.7187 89.5039 17.3381 88.5806 19.4688C87.6573 21.5852 87.1957 24.1562 87.1957 27.1818C87.1957 30.2926 87.6573 32.9062 88.5806 35.0227C89.5181 37.1392 90.8249 38.7372 92.5011 39.8168C94.1772 40.8963 96.1161 41.4361 98.3178 41.4361C99.5536 41.4361 100.697 41.2727 101.748 40.946C102.814 40.6193 103.758 40.1435 104.582 39.5185C105.406 38.8793 106.088 38.1051 106.627 37.196C107.181 36.2869 107.565 35.25 107.778 34.0852L117.11 34.1278C116.869 36.1307 116.265 38.0625 115.299 39.9233C114.348 41.7699 113.062 43.4247 111.443 44.8878C109.838 46.3366 107.92 47.4872 105.69 48.3395C103.474 49.1776 100.967 49.5966 98.1687 49.5966C94.2766 49.5966 90.7965 48.7159 87.7283 46.9545C84.6744 45.1932 82.2596 42.6435 80.484 39.3054C78.7227 35.9673 77.842 31.9261 77.842 27.1818C77.842 22.4233 78.7369 18.375 80.5266 15.0369C82.3164 11.6989 84.7454 9.15625 87.8136 7.40909C90.8817 5.64773 94.3335 4.76704 98.1687 4.76704C100.697 4.76704 103.041 5.12216 105.2 5.83239C107.373 6.54261 109.298 7.57954 110.974 8.94318C112.65 10.2926 114.014 11.9474 115.065 13.9077C116.13 15.8679 116.812 18.1122 117.11 20.6406ZM212.927 27.1818C212.927 31.9403 212.025 35.9886 210.221 39.3267C208.431 42.6648 205.988 45.2145 202.892 46.9759C199.809 48.723 196.343 49.5966 192.494 49.5966C188.616 49.5966 185.136 48.7159 182.054 46.9545C178.971 45.1932 176.535 42.6435 174.745 39.3054C172.956 35.9673 172.061 31.9261 172.061 27.1818C172.061 22.4233 172.956 18.375 174.745 15.0369C176.535 11.6989 178.971 9.15625 182.054 7.40909C185.136 5.64773 188.616 4.76704 192.494 4.76704C196.343 4.76704 199.809 5.64773 202.892 7.40909C205.988 9.15625 208.431 11.6989 210.221 15.0369C212.025 18.375 212.927 22.4233 212.927 27.1818ZM203.574 27.1818C203.574 24.0994 203.112 21.5 202.189 19.3835C201.279 17.267 199.994 15.6619 198.332 14.5682C196.67 13.4744 194.724 12.9276 192.494 12.9276C190.264 12.9276 188.318 13.4744 186.656 14.5682C184.994 15.6619 183.701 17.267 182.778 19.3835C181.869 21.5 181.414 24.0994 181.414 27.1818C181.414 30.2642 181.869 32.8636 182.778 34.9801C183.701 37.0966 184.994 38.7017 186.656 39.7955C188.318 40.8892 190.264 41.4361 192.494 41.4361C194.724 41.4361 196.67 40.8892 198.332 39.7955C199.994 38.7017 201.279 37.0966 202.189 34.9801C203.112 32.8636 203.574 30.2642 203.574 27.1818ZM219.761 49V5.36364H236.977C240.273 5.36364 243.085 5.95312 245.415 7.1321C247.759 8.29687 249.541 9.9517 250.763 12.0966C251.999 14.2273 252.616 16.7344 252.616 19.6179C252.616 22.5156 251.991 25.0085 250.741 27.0966C249.491 29.1705 247.68 30.7614 245.308 31.8693C242.95 32.9773 240.095 33.5312 236.743 33.5312H225.216V26.1165H235.251C237.013 26.1165 238.476 25.875 239.641 25.392C240.805 24.9091 241.672 24.1847 242.24 23.2188C242.822 22.2528 243.114 21.0526 243.114 19.6179C243.114 18.169 242.822 16.9474 242.24 15.9531C241.672 14.9588 240.798 14.206 239.619 13.6946C238.455 13.169 236.984 12.9062 235.209 12.9062H228.987V49H219.761ZM243.327 29.142L254.172 49H243.987L233.376 29.142H243.327ZM259.136 49V5.36364H276.352C279.662 5.36364 282.482 5.99574 284.811 7.25994C287.141 8.50994 288.916 10.25 290.138 12.4801C291.374 14.696 291.991 17.2528 291.991 20.1506C291.991 23.0483 291.366 25.6051 290.116 27.821C288.866 30.0369 287.055 31.7628 284.683 32.9986C282.325 34.2344 279.47 34.8523 276.118 34.8523H265.145V27.4588H274.626C276.402 27.4588 277.865 27.1534 279.016 26.5426C280.18 25.9176 281.047 25.0582 281.615 23.9645C282.197 22.8565 282.489 21.5852 282.489 20.1506C282.489 18.7017 282.197 17.4375 281.615 16.358C281.047 15.2642 280.18 14.419 279.016 13.8224C277.851 13.2116 276.374 12.9062 274.584 12.9062H268.362V49H259.136ZM297.984 49V5.36364H307.21V23.3679H325.939V5.36364H335.143V49H325.939V30.9744H307.21V49H297.984ZM351.975 5.36364V49H342.75V5.36364H351.975ZM398.067 20.6406H388.735C388.565 19.4332 388.217 18.3608 387.691 17.4233C387.165 16.4716 386.491 15.6619 385.667 14.9943C384.843 14.3267 383.891 13.8153 382.812 13.4602C381.746 13.1051 380.589 12.9276 379.339 12.9276C377.08 12.9276 375.113 13.4886 373.437 14.6108C371.761 15.7187 370.461 17.3381 369.538 19.4688C368.614 21.5852 368.153 24.1562 368.153 27.1818C368.153 30.2926 368.614 32.9062 369.538 35.0227C370.475 37.1392 371.782 38.7372 373.458 39.8168C375.134 40.8963 377.073 41.4361 379.275 41.4361C380.511 41.4361 381.654 41.2727 382.705 40.946C383.771 40.6193 384.715 40.1435 385.539 39.5185C386.363 38.8793 387.045 38.1051 387.585 37.196C388.138 36.2869 388.522 35.25 388.735 34.0852L398.067 34.1278C397.826 36.1307 397.222 38.0625 396.256 39.9233C395.305 41.7699 394.019 43.4247 392.4 44.8878C390.795 46.3366 388.877 47.4872 386.647 48.3395C384.431 49.1776 381.924 49.5966 379.126 49.5966C375.234 49.5966 371.754 48.7159 368.685 46.9545C365.631 45.1932 363.217 42.6435 361.441 39.3054C359.68 35.9673 358.799 31.9261 358.799 27.1818C358.799 22.4233 359.694 18.375 361.484 15.0369C363.273 11.6989 365.702 9.15625 368.771 7.40909C371.839 5.64773 375.29 4.76704 379.126 4.76704C381.654 4.76704 383.998 5.12216 386.157 5.83239C388.33 6.54261 390.255 7.57954 391.931 8.94318C393.607 10.2926 394.971 11.9474 396.022 13.9077C397.087 15.8679 397.769 18.1122 398.067 20.6406Z" fill="black"/>
<path d="M142.625 26.9901V31.2727C140.182 31.2727 138.478 31.7628 137.512 32.7429C136.56 33.723 136.084 35.3068 136.084 37.4943V42.2244C136.084 44.8523 135.715 46.9616 134.976 48.5526C134.252 50.1293 133.229 51.3224 131.908 52.1321C130.601 52.9418 129.046 53.4815 127.242 53.7514C125.452 54.0213 123.478 54.1562 121.319 54.1562V47.3594C122.995 47.3594 124.266 47.1463 125.132 46.7202C126.013 46.2798 126.61 45.6122 126.922 44.7173C127.235 43.8082 127.391 42.6719 127.391 41.3082V35.0866C127.391 33.9929 127.59 32.9631 127.988 31.9972C128.385 31.017 129.124 30.1577 130.203 29.419C131.283 28.6662 132.824 28.0767 134.827 27.6506C136.83 27.2102 139.429 26.9901 142.625 26.9901ZM121.319 0.228693C123.478 0.228693 125.452 0.363635 127.242 0.63352C129.046 0.903408 130.601 1.44318 131.908 2.25284C133.229 3.0625 134.252 4.26278 134.976 5.85369C135.715 7.4304 136.084 9.53267 136.084 12.1605V16.8693C136.084 19.0568 136.56 20.6406 137.512 21.6207C138.478 22.6009 140.182 23.0909 142.625 23.0909V27.3736C139.429 27.3736 136.83 27.1605 134.827 26.7344C132.824 26.294 131.283 25.7045 130.203 24.9659C129.124 24.2131 128.385 23.3537 127.988 22.3878C127.59 21.4077 127.391 20.3778 127.391 19.2983V13.0767C127.391 11.6989 127.235 10.5625 126.922 9.66761C126.61 8.75852 126.013 8.09091 125.132 7.66477C124.266 7.22443 122.995 7.00426 121.319 7.00426V0.228693ZM142.625 23.0909V31.2727H134.976V23.0909H142.625ZM146.338 27.3736V23.0909C148.795 23.0909 150.5 22.6009 151.452 21.6207C152.403 20.6406 152.879 19.0568 152.879 16.8693V12.1605C152.879 9.53267 153.241 7.4304 153.966 5.85369C154.705 4.26278 155.727 3.0625 157.034 2.25284C158.355 1.44318 159.918 0.903408 161.722 0.63352C163.526 0.363635 165.5 0.228693 167.645 0.228693V7.00426C165.969 7.00426 164.69 7.22443 163.81 7.66477C162.943 8.09091 162.354 8.75852 162.041 9.66761C161.729 10.5625 161.572 11.6989 161.572 13.0767V19.2983C161.572 20.3778 161.374 21.4077 160.976 22.3878C160.578 23.3537 159.839 24.2131 158.76 24.9659C157.68 25.7045 156.139 26.294 154.136 26.7344C152.134 27.1605 149.534 27.3736 146.338 27.3736ZM167.645 54.1562C165.5 54.1562 163.526 54.0213 161.722 53.7514C159.918 53.4815 158.355 52.9418 157.034 52.1321C155.727 51.3224 154.705 50.1293 153.966 48.5526C153.241 46.9616 152.879 44.8523 152.879 42.2244V37.4943C152.879 35.3068 152.403 33.723 151.452 32.7429C150.5 31.7628 148.795 31.2727 146.338 31.2727V26.9901C149.534 26.9901 152.134 27.2102 154.136 27.6506C156.139 28.0767 157.68 28.6662 158.76 29.419C159.839 30.1577 160.578 31.017 160.976 31.9972C161.374 32.9631 161.572 33.9929 161.572 35.0866V41.3082C161.572 42.6719 161.729 43.8082 162.041 44.7173C162.354 45.6122 162.943 46.2798 163.81 46.7202C164.69 47.1463 165.969 47.3594 167.645 47.3594V54.1562ZM146.338 31.2727V23.0909H153.987V31.2727H146.338Z" fill="#009F75"/>
</svg>
