<svg width="40" height="46" viewBox="0 0 40 46" fill="none" xmlns="http://www.w3.org/2000/svg">
<path d="M20 0C19.4 0 18.7778 0.158623 18.2667 0.453204L1.73332 10.197C0.666667 10.8316 0 12.0099 0 13.2788V32.7212C0 33.9902 0.666667 35.1685 1.73332 35.803L6.06665 38.3409C8.17778 39.3833 8.88888 39.4059 9.86667 39.4059C12.9778 39.4059 14.7778 37.4798 14.7778 34.1261V14.933C14.7778 14.6611 14.5556 14.4345 14.2889 14.4345H12.2222C11.9333 14.4345 11.7111 14.6611 11.7111 14.933V34.1261C11.7111 35.6217 10.2 37.0946 7.77778 35.8483L3.22223 33.1971C3.06668 33.0837 2.97778 32.9025 2.97778 32.7212V13.2788C2.97778 13.0749 3.06668 12.8936 3.22223 12.8029L19.7556 3.08177C19.8889 2.99113 20.1111 2.99113 20.2445 3.08177L36.7778 12.8029C36.9333 12.8936 37.0222 13.0749 37.0222 13.2788V32.7212C37.0222 32.9025 36.9333 33.0837 36.7778 33.1971L20.2445 42.9182C20.1111 43.0089 19.8889 43.0089 19.7333 42.9182L15.5556 40.335C15.3778 40.267 15.2 40.2444 15.0889 40.3123C13.9111 40.9922 13.6889 41.1281 12.6 41.468C12.3333 41.5587 11.9111 41.7173 12.7556 42.1931L18.2667 45.5242C18.8 45.8414 19.3778 46 20 46C20.6222 46 21.2 45.8414 21.7333 45.5242L38.2667 35.803C39.3334 35.1685 40 33.9902 40 32.7212V13.2788C40 12.0099 39.3334 10.8316 38.2667 10.197L21.7333 0.453204C21.2222 0.158623 20.6222 0 20 0ZM24.4444 13.936C19.7333 13.936 16.9111 15.9527 16.9111 19.3517C16.9111 23 19.7111 24.0651 24.2445 24.5182C29.6444 25.0621 30.0667 25.8779 30.0667 26.9655C30.0667 28.8463 28.5778 29.6394 25.1111 29.6394C20.7111 29.6394 19.7778 28.5291 19.4445 26.3084C19.4 26.0818 19.2 25.9005 18.9556 25.9005H16.8222C16.5556 25.9005 16.3556 26.1045 16.3556 26.399C16.3556 29.2089 17.8667 32.6079 25.1111 32.6079C30.3334 32.6079 33.3333 30.5005 33.3333 26.8296C33.3333 23.1813 30.9333 22.2296 25.8445 21.5271C20.7111 20.8473 20.2 20.4848 20.2 19.2611C20.2 18.2414 20.6445 16.8818 24.4444 16.8818C27.7778 16.8818 29.0889 17.6295 29.6 19.9636C29.6444 20.1902 29.8445 20.3488 30.0667 20.3488H32.2222C32.3333 20.3488 32.4667 20.3035 32.5556 20.1902C32.6445 20.0995 32.7111 19.9636 32.6667 19.8276C32.3556 15.7941 29.7333 13.936 24.4444 13.936Z" fill="#323232"/>
</svg>
