<svg width="37" height="38" viewBox="0 0 37 38" fill="none" xmlns="http://www.w3.org/2000/svg">
<path d="M18.4386 37.2409C28.622 37.2409 36.8773 28.9042 36.8773 18.6204C36.8773 8.33667 28.622 0 18.4386 0C8.25527 0 0 8.33667 0 18.6204C0 28.9042 8.25527 37.2409 18.4386 37.2409Z" fill="#323232"/>
<path d="M10.2149 15.9013C11.0631 15.9013 11.6162 16.0503 11.9112 16.3854C12.2063 16.6833 12.2431 17.242 12.0956 17.9868C11.9481 18.7688 11.6531 19.3647 11.2106 19.6998C10.768 20.035 10.1043 20.2212 9.21922 20.2212H7.85472L8.66605 15.9013H10.2149ZM4.79395 24.5784H7.00653L7.52284 21.8226H9.44046C10.2886 21.8226 10.9524 21.7481 11.5056 21.5619C12.0588 21.3757 12.5381 21.0778 12.9807 20.6681C13.3495 20.333 13.6445 19.9233 13.9026 19.5136C14.1239 19.104 14.3083 18.6199 14.382 18.1357C14.6033 16.9068 14.4558 15.9758 13.8657 15.2682C13.2757 14.5979 12.3538 14.2627 11.0631 14.2627H6.78529L4.79395 24.5784Z" fill="white"/>
<path d="M16.6318 11.5449H18.8444L18.3281 14.3008H20.2826C21.4996 14.3008 22.3846 14.5242 22.8272 14.9711C23.3065 15.418 23.4541 16.1256 23.2328 17.0939L22.3109 21.8979H20.0613L20.9464 17.3545C21.057 16.8332 21.0202 16.498 20.8358 16.3118C20.6514 16.1256 20.2826 16.0138 19.7295 16.0138H17.9594L16.8162 21.8979H14.6035L16.6318 11.5449Z" fill="white"/>
<path d="M28.2643 16.3443C29.14 16.3443 29.7111 16.4887 30.0157 16.8136C30.3203 17.1024 30.3584 17.6439 30.2061 18.366C30.0538 19.1241 29.7492 19.7017 29.2923 20.0266C28.8354 20.3515 28.1501 20.532 27.2363 20.532H25.8276L26.6653 16.3443H28.2643ZM22.6675 24.7559H24.9519L25.485 22.0844H27.4648C28.3405 22.0844 29.0258 22.0122 29.5969 21.8317C30.168 21.6512 30.663 21.3624 31.1199 20.9653C31.5006 20.6404 31.8052 20.2432 32.0717 19.8461C32.3002 19.449 32.4905 18.9797 32.5666 18.5104C32.7951 17.3191 32.6428 16.4165 32.0336 15.7306C31.4244 15.0808 30.4726 14.7559 29.14 14.7559H24.7235L22.6675 24.7559Z" fill="white"/>
</svg>
