<svg width="44" height="44" viewBox="0 0 44 44" fill="none" xmlns="http://www.w3.org/2000/svg">
<path d="M34.5263 10.9248V16.7794C34.5263 20.2314 31.7796 23.0266 28.3613 23.0266H17.0031C13.5848 23.0266 10.8169 25.8004 10.8169 29.2524V37.4454C10.8162 39.1029 11.4675 40.6928 12.6277 41.8652C13.7879 43.0376 15.3618 43.6964 17.0031 43.6968H26.2653C27.9066 43.6964 29.4805 43.0376 30.6407 41.8652C31.8009 40.6928 32.4523 39.1029 32.4515 37.4454V33.7756H23.1681C22.3243 33.7756 21.6343 32.5325 21.6343 31.6804H37.0827C38.724 31.6801 40.2979 31.0212 41.4581 29.8488C42.6182 28.6764 43.2696 27.0865 43.2689 25.429V17.172C43.2682 13.7221 40.4989 10.9256 37.0827 10.9249L34.5263 10.9248ZM13.6733 20.7863L13.6649 20.7948C13.6908 20.7896 13.7191 20.7913 13.7452 20.7863H13.6733ZM27.8204 36.6816C28.6642 36.6816 29.3585 37.3384 29.3585 38.6275C29.3573 39.4841 28.6687 40.1775 27.8204 40.1764C26.955 40.1764 26.2655 39.9165 26.2655 38.6275C26.2655 37.3384 26.955 36.6816 27.8204 36.6816Z" fill="#323232"/>
<path d="M17.0033 0.000128652C13.5851 0.000128652 10.8171 2.79534 10.8171 6.24729V9.91709H20.0964C20.9402 9.91709 21.6345 11.1645 21.6345 12.0165H6.18617C2.76792 12.0165 0 14.8117 0 18.2637V26.5248C0 29.9768 2.76792 32.772 6.18617 32.772H8.73838V26.9174C8.73838 23.4655 11.4895 20.6703 14.9077 20.6703H26.2658C29.684 20.6703 32.452 17.892 32.452 14.4401V6.24715C32.452 2.7952 29.684 0 26.2658 0L17.0033 0.000128652ZM15.4484 3.51633C16.3137 3.51633 17.0033 3.78055 17.0033 5.06955C17.0033 6.3586 16.3137 7.01537 15.4484 7.01537C14.6046 7.01537 13.9103 6.3586 13.9103 5.06955C13.9103 3.78055 14.6046 3.51633 15.4484 3.51633Z" fill="#323232"/>
</svg>
