<svg width="40" height="40" viewBox="0 0 40 40" fill="none" xmlns="http://www.w3.org/2000/svg">
<path d="M4.33217 40H23.8544C23.8544 40 19.5239 29.9811 20.6241 20.7849C21.7244 11.5887 28.8442 7.40187 32.8802 6.95287C36.9161 6.50382 39.1184 9.04713 39.1184 9.04713L40 7.70184C40 7.70184 34.2026 1.7207 26.8624 2.39427C19.5222 3.0678 14.4583 8.00181 11.3039 13.9829C8.14777 19.9641 6.31228 24.1509 5.06567 30.432C3.81911 36.7131 4.33217 40 4.33217 40ZM0.442563 29.9811L4.25811 30.2811L3.59693 34.1679L0 33.7189L0.442563 29.9811ZM6.46035 21.7566L7.48833 18.8415L4.11176 17.4962L3.01155 20.6358L6.46035 21.7566ZM11.2316 11.7378L13.2134 9.34529L10.6444 7.6264L8.59031 9.94342L11.2316 11.7378ZM16.4418 2.46791L18.2033 4.63585L20.6259 3.21507L18.8645 1.19621L16.4418 2.46791ZM25.0286 0L25.4695 2.16794L28.4792 2.0925L28.1847 0.149062L25.0286 0ZM35.2305 2.31702L35.1565 3.66231L37.2124 4.78312L37.6531 4.10955L35.2305 2.31702ZM34.7897 8.07544V9.19621L36.7716 9.42073V8.52268L34.7897 8.07544ZM28.4792 9.04713L29.4331 10.8415L30.8278 9.7207L30.5351 8.52449L28.4792 9.04713ZM25.4695 11.3642L26.9364 13.6075L26.0566 15.1773L23.9284 12.7849L25.4695 11.3642ZM22.5337 17.5698L21.5798 19.5132L24.0748 21.6812L24.6619 19.2133L22.5337 17.5698ZM21.5058 24.3736L21.3594 26.9906L24.4415 28.3359L24.2952 25.868L21.5058 24.3736ZM22.3874 33.6434L23.1226 36.3359L27.0123 36.5604L25.6176 33.6453L22.3874 33.6434Z" fill="#323232"/>
</svg>
