<svg width="42" height="38" viewBox="0 0 42 38" fill="none" xmlns="http://www.w3.org/2000/svg">
<path d="M20.6511 22.2434C22.6878 22.2434 24.3388 20.5762 24.3388 18.5197C24.3388 16.4631 22.6878 14.7959 20.6511 14.7959C18.6144 14.7959 16.9634 16.4631 16.9634 18.5197C16.9634 20.5762 18.6144 22.2434 20.6511 22.2434Z" fill="#323232"/>
<path d="M20.6513 27.0578C16.2188 27.1661 11.7975 26.5627 7.55246 25.2703C5.59151 24.6425 3.76254 23.6536 2.15807 22.3535C1.54579 21.9094 1.03591 21.3368 0.663408 20.6749C0.290907 20.0131 0.0645924 19.2777 0 18.5192C0 16.0568 2.67876 13.6436 7.16597 12.0646C11.5245 10.6655 16.0784 9.98735 20.6513 10.0566C25.1632 9.99293 29.656 10.6588 33.9595 12.0288C35.848 12.6369 37.615 13.578 39.1784 14.8085C39.7802 15.2319 40.2824 15.7838 40.6495 16.4251C41.0166 17.0663 41.2395 17.7813 41.3025 18.5192C41.3025 21.0784 38.3081 23.6718 33.4846 25.2836C29.3217 26.534 24.9937 27.1323 20.6513 27.0578ZM20.6513 11.8382C16.2763 11.7791 11.92 12.4238 7.74571 13.7479C3.61546 15.2033 1.76421 17.1934 1.76421 18.5147C1.76421 19.8971 3.75409 22.0705 8.12333 23.5795C12.1843 24.8097 16.4128 25.3824 20.6513 25.2762C24.8057 25.3512 28.9471 24.7836 32.9314 23.5929C37.4673 22.0749 39.5324 19.8986 39.5324 18.5192C39.458 18.0458 39.2872 17.5932 39.0308 17.1899C38.7743 16.7866 38.4378 16.4414 38.0426 16.176C36.6438 15.0843 35.0654 14.2502 33.3798 13.7122C29.2629 12.4069 24.9659 11.7742 20.6513 11.8382Z" fill="#323232"/>
<path d="M12.2721 37.0941C11.584 37.1101 10.904 36.9415 10.3014 36.6055C8.18903 35.3751 7.45739 31.8268 8.34391 27.1121C9.32138 22.6001 11.015 18.2775 13.3592 14.3117C15.5582 10.333 18.3733 6.73525 21.6979 3.65478C23.1629 2.30624 24.8529 1.23046 26.6896 0.477398C27.3539 0.162978 28.0786 0 28.8123 0C29.5459 0 30.2706 0.162978 30.9349 0.477398C33.1313 1.75553 33.8585 5.67029 32.8334 10.6948C31.8257 14.9619 30.1761 19.0478 27.942 22.81C25.8204 26.7417 23.0939 30.3081 19.8644 33.376C18.3462 34.7774 16.5843 35.883 14.6676 36.6368C13.9003 36.9244 13.0904 37.079 12.2721 37.0941ZM14.8874 15.1965C12.6513 18.9941 11.0281 23.1269 10.0786 27.4398C9.2629 31.7821 10.0462 34.3934 11.185 35.0578C12.365 35.7475 15.2296 35.0936 18.7079 32.0249C21.7909 29.0858 24.3932 25.6719 26.4182 21.9103C28.5585 18.3136 30.1409 14.4072 31.1105 10.3269C32.0752 5.59726 31.2417 2.70141 30.0587 2.01322C29.6153 1.84167 29.1415 1.76482 28.6672 1.78766C28.1929 1.81049 27.7285 1.93243 27.3032 2.14579C25.6684 2.82707 24.1653 3.79426 22.8632 5.00294C19.6869 7.95356 16.9978 11.3978 14.8977 15.2054L14.8874 15.1965Z" fill="#323232"/>
<path d="M29.0257 37.1146C27.027 37.1146 24.4883 35.8931 21.845 33.5976C18.4622 30.4891 15.5994 26.8486 13.3676 22.8171C11.0528 18.9058 9.37261 14.6457 8.3907 10.1984C7.96484 8.24172 7.88596 6.2243 8.15761 4.23982C8.22044 3.50363 8.44243 2.79037 8.80788 2.15023C9.17337 1.51014 9.67349 0.958809 10.2729 0.535085C12.4664 -0.747484 16.188 0.570836 19.9864 3.97617C23.144 6.98847 25.8254 10.472 27.9371 14.3053C30.2505 18.1252 31.9483 22.292 32.9672 26.6499C33.4114 28.6783 33.4799 30.7723 33.1692 32.8259C33.0954 33.5833 32.8602 34.3155 32.4798 34.9725C32.0994 35.6294 31.5828 36.1955 30.9655 36.6319C30.3728 36.9637 29.7033 37.1303 29.0257 37.1146ZM14.8944 21.9203C17.0353 25.7731 19.7699 29.2573 22.9956 32.242C26.313 35.1244 28.9446 35.7441 30.076 35.0723C31.2561 34.3796 32.1264 31.5523 31.2295 26.9776C30.2469 22.817 28.6185 18.8396 26.4045 15.1931C24.3893 11.5243 21.8299 8.18862 18.8152 5.30192C15.2396 2.09622 12.3395 1.37972 11.158 2.07091C10.7897 2.37313 10.4875 2.74918 10.2704 3.17529C10.0533 3.60145 9.92612 4.0684 9.89676 4.54666C9.66225 6.31649 9.73863 8.11421 10.1224 9.85725C11.067 14.1104 12.6784 18.1837 14.8958 21.9233L14.8944 21.9203Z" fill="#323232"/>
</svg>
