<svg width="152" height="148" viewBox="0 0 152 148" fill="none" xmlns="http://www.w3.org/2000/svg">
<path d="M91.5813 18.9881C97.9412 20.1591 103.726 22.68 109.144 25.8637C114.238 24.0527 119.067 17.7375 124.668 19.3055C126.624 19.8492 131.361 24.5488 132.456 26.3249C134.65 29.9043 134.017 30.8659 132.023 34.4083C130.771 36.6318 126.157 41.6585 126.556 43.6595C129.781 48.8932 131.575 54.8099 133.074 60.7799C136.591 62.1208 145.388 61.9955 147.31 65.136C149.387 68.5263 148.96 79.6839 144.733 81.9022C142.542 83.0504 132.42 84.4373 131.705 85.38C129.986 91.7661 126.744 97.6003 123.469 103.394C124.661 106.89 130.139 112.457 129.684 116.086C129.285 119.278 122.091 126.43 119.025 127.164C113.275 128.544 109.327 122.244 104.216 121.097C98.7184 124.624 92.5812 127.083 86.2875 128.589C83.4983 133.574 84.7923 143.067 77.6333 144.275C75.6623 144.606 69.9039 144.715 67.9684 144.457C61.149 143.548 62.9387 134.537 61.095 129.632L60.528 128.939C54.2378 127.917 48.5779 125.264 43.2456 122.188C38.5004 123.87 33.7447 129.671 28.6333 128.962C25.7969 128.564 19.8306 122.569 18.9933 119.955C17.052 113.891 26.5421 107.932 25.8333 104.393C22.6091 99.1588 20.8142 93.2422 19.3152 87.2721C15.7982 85.9313 7.00183 86.0565 5.07987 82.9161C2.99608 79.5122 3.33646 68.4177 7.66311 66.1497C9.85506 65.0015 19.9761 63.6146 20.6919 62.6719C22.4107 56.2858 25.6529 50.4516 28.928 44.6578C27.6214 40.7747 21.9276 35.6423 22.8482 31.4711C23.6001 28.0478 30.8748 21.1194 34.4058 20.7247C39.4672 20.1577 43.4743 25.9505 48.1872 26.9613C53.6848 23.4346 59.8221 20.9753 66.1157 19.4695C69.3066 13.5406 67.1513 4.67943 75.8565 3.69506C79.2191 3.31723 86.3225 2.97117 88.4327 5.68452C90.2668 8.041 90.3 17.9056 91.5953 18.9878L91.5813 18.9881ZM86.1418 7.57925C84.9368 5.78476 74.6806 6.06744 72.9005 7.65192L68.8923 21.6852C61.3614 23.3647 54.222 26.4783 47.5765 30.4981C44.454 29.5187 37.2892 23.0409 34.3975 23.6421C32.585 24.0179 25.7718 30.6438 25.6606 32.511C26.3728 35.2576 32.7051 42.9263 32.3751 45.1323C32.2224 46.1259 28.0142 52.0125 27.0824 53.9567C25.4424 57.4104 24.1866 61.4376 23.2762 65.1099L8.70703 68.8217C7.04449 69.8506 7.09588 79.339 7.66669 81.3983L22.317 84.9677C22.8664 88.626 23.7581 92.5717 25.0518 95.9973C26.0805 98.6969 30.0525 104.06 28.9758 106.403C27.7352 109.105 22.1549 114.922 21.5411 117.222C21.029 119.151 27.7656 125.822 29.4492 126.09C32.3519 126.562 40.0713 119.823 43.3152 118.723C49.5845 122.492 56.4355 125.348 63.8178 126.746L66.2478 140.473C67.4464 142.254 78.3769 142.033 79.7353 140.218L83.497 126.374C90.8615 124.67 97.982 121.803 104.422 117.691C106.405 117.128 114.966 125.048 117.999 124.417C119.811 124.041 126.624 117.415 126.736 115.548C126.023 112.801 119.691 105.132 120.021 102.926C120.174 101.933 124.382 96.0463 125.314 94.1021C126.954 90.6483 128.21 86.6211 129.12 82.9489L143.689 79.237C145.352 78.2082 145.3 68.7197 144.73 66.6604L130.079 63.091C129.522 59.4465 128.653 55.4663 127.344 52.0614C126.457 49.7554 123.31 45.3947 122.986 43.8636C122.378 40.9853 130.211 33.6227 130.804 30.8856C131.244 28.8551 124.721 22.2558 122.94 21.9684C120.19 21.5217 112.24 28.2647 109.074 29.3356C102.805 25.5668 95.9537 22.7108 88.5715 21.3132L86.1415 7.58609L86.1418 7.57925Z" fill="#323232"/>
<path d="M72.2949 33.6388C103.236 29.6653 125.844 55.9575 115.56 85.447C104.821 116.236 62.5957 125.021 42.8533 100.97C23.1108 76.9194 39.9559 37.7959 72.2949 33.6388ZM72.7326 36.4316C56.4609 38.5291 41.7823 52.6002 38.2658 68.1614C31.1149 99.8462 65.0075 123.37 94.2745 106.345C131.3 84.8079 115.309 30.9333 72.7326 36.4316Z" fill="#323232"/>
<path d="M78.4678 52.2023L75.7202 52.2432L74.5803 78.2883L77.3279 78.2474L78.4678 52.2023Z" fill="#323232"/>
<path d="M77.1136 86.9259L74.3311 86.976L73.8086 98.0283L76.5912 97.9782L77.1136 86.9259Z" fill="#323232"/>
<path d="M84.5663 88.3667L66.5235 88.7462L67.127 76.845L85.1698 76.4655L84.5663 88.3667ZM69.5324 85.849L81.8382 85.5902L82.1539 79.3628L69.8482 79.6216L69.5324 85.849Z" fill="#323232"/>
<path d="M56.1778 72.1729L53.4302 72.2137L52.2902 98.2589L55.0379 98.218L56.1778 72.1729Z" fill="#323232"/>
<path d="M56.9491 52.4331L54.1665 52.4832L53.6441 63.5355L56.4266 63.4854L56.9491 52.4331Z" fill="#323232"/>
<path d="M63.623 73.6164L45.5801 73.9959L46.1836 62.0947L64.2265 61.7153L63.623 73.6164ZM48.596 71.0986L60.9018 70.8398L61.2176 64.6124L48.9118 64.8712L48.596 71.0986Z" fill="#323232"/>
<path d="M99.2242 71.7168L96.4766 71.7577L95.3366 97.8028L98.0842 97.762L99.2242 71.7168Z" fill="#323232"/>
<path d="M99.9955 51.977L97.2129 52.0271L96.6905 63.0794L99.473 63.0293L99.9955 51.977Z" fill="#323232"/>
<path d="M106.677 73.1603L88.6343 73.5397L89.2378 61.6385L107.281 61.2591L106.677 73.1603ZM91.6432 70.6426L103.949 70.3838L104.265 64.1564L91.959 64.4152L91.6432 70.6426Z" fill="#323232"/>
</svg>
