<svg width="31" height="41" viewBox="0 0 31 41" fill="none" xmlns="http://www.w3.org/2000/svg">
<path d="M20.6868 40.5189C22.6641 39.268 24.1707 37.536 24.6415 35.1304C25.3007 31.955 24.1707 29.3569 22.0992 27.1438C20.7809 25.7004 19.086 24.5458 17.4853 23.4873C16.3553 22.7175 15.1312 21.9477 14.1896 20.8892C13.3421 20.0232 12.7772 18.9648 12.9655 17.4252C11.9298 18.4837 11.3648 19.6383 11.2706 20.8892C11.0823 22.3326 11.5531 23.5835 12.4005 24.7382C12.7772 25.2193 13.1538 25.7004 13.4363 26.1816C14.0013 26.8551 14.378 27.7211 14.378 28.5872C14.378 30.1267 13.4363 31.2814 12.1181 31.3776C10.7056 31.4738 9.48155 30.3192 9.38737 28.8758C9.38737 28.3947 9.48155 27.9136 9.48155 27.24C7.31583 29.0683 5.80926 31.2814 5.71508 34.1681C5.6209 37.151 7.22165 39.1718 9.48155 40.9038C9.29319 41.0962 9.10488 40.9038 8.91657 40.9038C2.32529 38.5944 -1.15869 32.2436 0.347876 25.1231C1.19534 20.8892 3.45519 17.329 6.18588 14.1536C8.06911 11.9404 10.2348 10.1122 12.1181 7.99523C13.3421 6.55191 14.3779 5.0123 14.9429 3.18406C15.3195 1.93317 15.2254 0.970915 14.8488 0.104902C15.0371 -0.0875556 15.2254 0.00868981 15.3195 0.201119C17.6736 2.51047 19.086 5.20473 18.8977 8.66882C18.8035 10.016 18.3327 11.3631 18.0502 12.7102C17.7678 13.7687 17.6736 14.9234 17.9561 15.9818C18.2386 17.0403 18.8035 17.9063 19.8393 18.195C21.44 18.6761 23.4174 17.4251 23.0408 15.4045C24.8299 16.3667 26.2423 17.5214 27.5605 19.061C32.7394 25.0269 31.9861 33.2059 25.8657 38.2095C24.359 39.3642 22.7583 40.3264 20.9692 41C20.8751 40.7113 20.6868 40.8076 20.6868 40.5189Z" fill="#323232"/>
</svg>
